<svg xmlns="http://www.w3.org/2000/svg" xmlns:xlink="http://www.w3.org/1999/xlink" viewBox="0 0 290.08 86.74"><defs><style>.cls-1{opacity:0.5;}.cls-2{fill:url(#radial-gradient);}.cls-3{fill:url(#radial-gradient-2);}.cls-4{fill:url(#radial-gradient-3);}.cls-5{fill:url(#radial-gradient-4);}.cls-6{fill:url(#radial-gradient-5);}.cls-7{fill:url(#radial-gradient-6);}.cls-8{fill:url(#radial-gradient-7);}.cls-9{fill:url(#radial-gradient-8);}.cls-10{fill:#732022;}.cls-11{fill:url(#radial-gradient-9);}.cls-12{fill:url(#radial-gradient-10);}.cls-13{fill:url(#radial-gradient-11);}.cls-14{fill:url(#radial-gradient-12);}.cls-15{fill:url(#radial-gradient-13);}.cls-16{fill:url(#radial-gradient-14);}.cls-17{fill:url(#radial-gradient-15);}.cls-18{fill:url(#radial-gradient-16);}</style><radialGradient id="radial-gradient" cx="172.6" cy="-307.21" r="30.11" gradientTransform="matrix(1.28, -0.21, 0.22, 1.35, 73.62, 474.06)" gradientUnits="userSpaceOnUse"><stop offset="0" stop-color="#231f20" stop-opacity="0.32"/><stop offset="1" stop-color="#231f20" stop-opacity="0.75"/></radialGradient><radialGradient id="radial-gradient-2" cx="154.43" cy="-167.67" r="30.85" gradientTransform="translate(0 236.01) scale(1 1.03)" xlink:href="#radial-gradient"/><radialGradient id="radial-gradient-3" cx="201.32" cy="-179.14" r="44.78" gradientTransform="matrix(1, -0.06, 0.06, 1.03, 39.99, 248.55)" xlink:href="#radial-gradient"/><radialGradient id="radial-gradient-4" cx="84.42" cy="-163.66" r="20.77" gradientTransform="translate(0 236.01) scale(1 1.03)" xlink:href="#radial-gradient"/><radialGradient id="radial-gradient-5" cx="29.3" cy="67.67" r="18.26" gradientTransform="matrix(1, 0, 0, 1, 0, 0)" xlink:href="#radial-gradient"/><radialGradient id="radial-gradient-6" cx="29.3" cy="48.8" r="18.26" gradientTransform="matrix(1, 0, 0, 1, 0, 0)" xlink:href="#radial-gradient"/><radialGradient id="radial-gradient-7" cx="29.3" cy="29.93" r="18.26" gradientTransform="matrix(1, 0, 0, 1, 0, 0)" xlink:href="#radial-gradient"/><radialGradient id="radial-gradient-8" cx="29.3" cy="11.07" r="18.26" gradientTransform="matrix(1, 0, 0, 1, 0, 0)" xlink:href="#radial-gradient"/><radialGradient id="radial-gradient-9" cx="321.35" cy="-84.07" r="4.95" gradientTransform="matrix(1.12, 0.44, -0.41, 1.19, -195.29, -1.17)" gradientUnits="userSpaceOnUse"><stop offset="0" stop-color="#732022"/><stop offset="0.87" stop-color="#ae3b3f"/></radialGradient><radialGradient id="radial-gradient-10" cx="204.13" cy="19.01" r="6.22" gradientTransform="translate(-0.9 19.76) rotate(-5.53)" xlink:href="#radial-gradient-9"/><radialGradient id="radial-gradient-11" cx="129.53" cy="52.36" r="4.19" gradientTransform="translate(-6.58 68.11) rotate(-25.34)" xlink:href="#radial-gradient-9"/><radialGradient id="radial-gradient-12" cx="70.72" cy="29.6" r="2.71" gradientTransform="translate(-6.58 68.11) rotate(-25.34)" xlink:href="#radial-gradient-9"/><radialGradient id="radial-gradient-13" cx="45.37" cy="-43.78" r="2.01" gradientTransform="translate(-12.5 65.43) rotate(-19.48)" xlink:href="#radial-gradient-9"/><radialGradient id="radial-gradient-14" cx="39.08" cy="-25.99" r="2.01" gradientTransform="translate(-12.5 65.43) rotate(-19.48)" xlink:href="#radial-gradient-9"/><radialGradient id="radial-gradient-15" cx="32.78" cy="-8.2" r="2.01" gradientTransform="translate(-12.5 65.43) rotate(-19.48)" xlink:href="#radial-gradient-9"/><radialGradient id="radial-gradient-16" cx="26.53" cy="9.48" r="2.01" gradientTransform="translate(-12.5 65.43) rotate(-19.48)" xlink:href="#radial-gradient-9"/></defs><g id="Layer_4" data-name="Layer 4"><g class="cls-1"><path class="cls-2" d="M173.1,6.79c-.48,1.33,1.41,3.74,5.1,5.23s10.57,4.35,14.86,7.13,10.07,4.4,14.28,8.41,11.92,14,20.19,18.22c8.05,4.13,17.09,1.84,19.81-1.4a69.1,69.1,0,0,0,7.39-10.21c3.61-6.23,3.26-9.13,4.17-8.53s4.07,3.55,7.34,3.54,6-.33,7-4.73.44-10.74.44-10.74a9.62,9.62,0,0,0-.5,1.28,20.34,20.34,0,0,1-.79,3.5c-.68,1.78-2.11,4.89-3.47,2.59a18.47,18.47,0,0,0-4.47-4.84,10.37,10.37,0,0,0-7.61-2.47c-4.94.51-7.32,3.48-9.43,6.14s-7.94,10.87-8.83,11.66-1.4,3.18-4.78-.61-8.78-10.42-14-14.65a48.56,48.56,0,0,0-19.06-9.84C192.62,4.32,174.43,3.14,173.1,6.79Z"/><path class="cls-3" d="M112.75,55.73c4.49-3.56,15.23-3.48,18.95-2.49,5,.94,11.32,2.09,15.62,4.36,4.75,2.37,8.4,5.19,13.28,6.92,8.42,4.09,6.15-11.66,17.14-13.41,5.09-2.56,16.59,8.87,16,1.11.58-5.77,3,3.48,2.41,5.77-1.26,4.28-7.86,4.31-11.4,3.36-1.8-.58-3.5-1.51-5.51-1-6.88,27.16-30.13,12.65-45.52,3-2.46-1.12-3.88,0-6.79-1.3-3.61-1.37-11.77-4.39-12.77-4.42S112.23,55.92,112.75,55.73Z"/><path class="cls-4" d="M285.51,43.93s-.74,6.64-4.29,7.42c-2.85.62-3.78-1.71-6.12-4.54A28.34,28.34,0,0,0,268,41.07a10.74,10.74,0,0,0-11.87,1.64,39.07,39.07,0,0,0-6.54,7.8c-3.19,4.71-7.56,11.59-11.11,11.63-2.24,0-5-3.24-5.46-3.63-3.62-3-10.43-11.41-14.28-15-7.11-6.66-8.72-7.27-16.32-11.84-5.75-3.46-11.09-5.21-16.14-5.28-2.51,0-12.4.8-14,1.46A1.88,1.88,0,0,0,171,29.39c-.13,1.72,2.15,3.58,5,5,.9.45,9.45,6.35,12.9,8.21,12.47,6.77,20.65,15.07,29,24.27,4.08,4.5,6.83,7.93,11,9.89,3.08,1.47,6.43,2.85,9.5,2.66a30.36,30.36,0,0,0,3.56-.21c4-.89,5.94-1.9,9.36-5.59a54.75,54.75,0,0,0,10-16.3c1.5-3.94,4.86-2.58,8.08-.12a23,23,0,0,0,6,3.31,8.51,8.51,0,0,0,5.53-.67c2.37-1,3.35-4.07,3.72-5.25.92-2.9,1.6-11.07,1.64-11.93C286.3,42.52,285.56,43.81,285.51,43.93Z"/><path class="cls-5" d="M56,62c6.11-2.56,13.2-1,18.56.21,4.91,1.11,8,4.1,12.47,5.82,5.45,2.39,7.58-8.23,16.66-6.88,2.88.45,7.43,4.74,8.25,1.06,1.46-3.12,1.4,2,.57,3.2-1.57,2.21-6,2.18-8.4,1.53a7.16,7.16,0,0,0-3.57-.71c-8.77,13.25-19.94,7-31.62.44C67.8,65.65,54,63.08,56,62Z"/><path class="cls-6" d="M4.52,61.69a31.47,31.47,0,0,1,5.89-.21,33.9,33.9,0,0,1,6.08,1.21c.82.31,3.37,1,4.1,1.33A21.27,21.27,0,0,1,24,65.74c.37.24,1.21.94,1.38,1.05,1.38.87,2.2,1.94,3.89,2.66.28.11,1.22.45,1.39.49,2.71.59,7.62-3.78,13.53-3.29a15,15,0,0,1,1.85.39c2.35.65,5.06,4,7.11,1.57,2.41-2,.51,1.5-.66,2.24a8.82,8.82,0,0,1-5.14.73,18.12,18.12,0,0,1-2.73-.68A6.26,6.26,0,0,0,41.82,70a28.14,28.14,0,0,1-9.88,3.74c-10,1.25-13.48-4.32-17.88-7.34-1-.64-2.25-.4-3.5-1.12-1.62-.83-5.3-2.69-5.87-2.79S4.15,61.7,4.52,61.69Z"/><path class="cls-7" d="M4.52,42.82a32.35,32.35,0,0,1,5.89-.21,33.9,33.9,0,0,1,6.08,1.21c.82.31,3.37,1,4.1,1.33A21.27,21.27,0,0,1,24,46.87c.37.24,1.21,1,1.38,1.05,1.38.87,2.2,1.94,3.89,2.66.28.11,1.22.46,1.39.49,2.71.59,7.62-3.78,13.53-3.29a15,15,0,0,1,1.85.39c2.35.65,5.06,4,7.11,1.57,2.41-2,.51,1.5-.66,2.24a8.82,8.82,0,0,1-5.14.73A18.12,18.12,0,0,1,44.66,52a6.14,6.14,0,0,0-2.84-.9,28.33,28.33,0,0,1-9.88,3.73c-10,1.25-13.48-4.32-17.88-7.34-1-.63-2.25-.4-3.5-1.12-1.62-.83-5.3-2.69-5.87-2.79S4.15,42.83,4.52,42.82Z"/><path class="cls-8" d="M4.52,24a32.35,32.35,0,0,1,5.89-.21A33.9,33.9,0,0,1,16.49,25c.82.31,3.37,1.05,4.1,1.33A21.27,21.27,0,0,1,24,28c.37.24,1.21.95,1.38,1.06,1.38.87,2.2,1.93,3.89,2.65.28.12,1.22.46,1.39.49,2.71.59,7.62-3.78,13.53-3.29a17.12,17.12,0,0,1,1.85.39c2.35.65,5.06,4,7.11,1.57,2.41-1.94.51,1.5-.66,2.24a8.82,8.82,0,0,1-5.14.73,18.12,18.12,0,0,1-2.73-.68,6.14,6.14,0,0,0-2.84-.9A28.13,28.13,0,0,1,31.94,36c-10,1.25-13.48-4.32-17.88-7.34-1-.63-2.25-.39-3.5-1.12-1.62-.83-5.3-2.68-5.87-2.79S4.15,24,4.52,24Z"/><path class="cls-9" d="M4.52,5.08a33.27,33.27,0,0,1,5.89-.21,34.84,34.84,0,0,1,6.08,1.21c.82.32,3.37,1,4.1,1.34A22.15,22.15,0,0,1,24,9.13c.37.24,1.21.95,1.38,1.06,1.38.87,2.2,1.93,3.89,2.65.28.12,1.22.46,1.39.5,2.71.59,7.62-3.79,13.53-3.3.41,0,1.54.31,1.85.39,2.35.65,5.06,4,7.11,1.57,2.41-1.94.51,1.51-.66,2.24a8.82,8.82,0,0,1-5.14.73,18.12,18.12,0,0,1-2.73-.68,6.14,6.14,0,0,0-2.84-.9,27.94,27.94,0,0,1-9.88,3.73c-10,1.25-13.48-4.32-17.88-7.34-1-.63-2.25-.39-3.5-1.12C8.94,7.83,5.26,6,4.69,5.87S4.15,5.1,4.52,5.08Z"/></g><path class="cls-10" d="M39.71,75.61h1.44v5.12h2.51v1.2H39.71Z"/><path class="cls-10" d="M46.11,77.1h0l-1.16.55-.24-1.07,1.62-.75h1.18v6.1H46.11Z"/><path class="cls-10" d="M100.61,75.61H102v5.12h2.52v1.2h-4Z"/><path class="cls-10" d="M105.18,81.93v-.86l.79-.71c1.33-1.2,2-1.88,2-2.59,0-.5-.3-.9-1-.9a2.24,2.24,0,0,0-1.3.51l-.4-1a3.34,3.34,0,0,1,2-.63,1.9,1.9,0,0,1,2.14,1.91,3.79,3.79,0,0,1-1.62,2.63l-.56.47v0h2.3v1.17Z"/><path class="cls-10" d="M184.64,75.61h1.43v5.12h2.52v1.2h-4Z"/><path class="cls-10" d="M189.47,80.53a3.19,3.19,0,0,0,1.41.38c.74,0,1.12-.36,1.12-.82s-.6-.87-1.23-.87h-.58v-1h.55c.48,0,1.09-.19,1.09-.71,0-.36-.3-.63-.9-.63a2.82,2.82,0,0,0-1.28.36l-.29-1a3.79,3.79,0,0,1,1.89-.46c1.3,0,2,.68,2,1.52a1.47,1.47,0,0,1-1.12,1.42v0a1.51,1.51,0,0,1,1.32,1.48c0,1.08-.95,1.87-2.49,1.87a3.52,3.52,0,0,1-1.81-.44Z"/><path class="cls-10" d="M264.86,80.31l-.45,1.62h-1.48l1.93-6.32h1.88l2,6.32h-1.54l-.49-1.62Zm1.6-1.07-.39-1.34c-.11-.38-.22-.85-.32-1.22h0c-.09.37-.19.85-.29,1.22l-.37,1.34Z"/><path class="cls-10" d="M273.82,75.27v5.29c0,.52,0,1.06,0,1.37h-1.26l-.07-.67h0a1.61,1.61,0,0,1-1.43.78,2.11,2.11,0,0,1-2-2.36,2.18,2.18,0,0,1,2.06-2.44,1.4,1.4,0,0,1,1.21.52h0V75.27Zm-1.43,4a2.28,2.28,0,0,0,0-.26.85.85,0,0,0-.83-.7c-.65,0-1,.58-1,1.3s.39,1.27,1,1.27a.83.83,0,0,0,.82-.69,1.08,1.08,0,0,0,0-.32Z"/><path class="cls-10" d="M279.29,80.46c0,.6,0,1.09,0,1.47h-1.24l-.07-.65h0a1.63,1.63,0,0,1-1.44.76c-.93,0-1.61-.59-1.61-2v-2.7h1.43v2.47c0,.67.22,1.07.71,1.07a.77.77,0,0,0,.72-.5.73.73,0,0,0,0-.31V77.34h1.44Z"/><path class="cls-10" d="M280.44,75.27h1.43v6.66h-1.43Z"/><path class="cls-10" d="M284.62,76v1.31h1v1h-1v1.67c0,.55.13.8.56.8a2.12,2.12,0,0,0,.42,0V81.9a2.63,2.63,0,0,1-.93.13,1.47,1.47,0,0,1-1.07-.4,1.91,1.91,0,0,1-.39-1.36V78.39h-.61v-1h.61v-1Z"/><path class="cls-11" d="M201.6,48.11A20.39,20.39,0,0,1,198.34,45c-1.12-1.34-3.18-4.41-3.51-6.48-.44-2.81.28-5.28,1.62-5.52s2.79,1.83,3.24,4.64a8.56,8.56,0,0,1-.19,3.85,4.83,4.83,0,0,0,.36,2.49c.37.6,2.14,2.36,2.81,3.27S202.83,49.09,201.6,48.11Zm-2.95-10.25c-.25-1.61-1.09-2.81-1.86-2.67s-1.18,1.56-.92,3.17,1.09,2.8,1.86,2.66S198.91,39.47,198.65,37.86Z"/><path class="cls-12" d="M207.57,26A20.18,20.18,0,0,1,204,23.29c-1.25-1.23-3.59-4.09-4.12-6.12-.71-2.75-.23-5.27,1.08-5.65s2.95,1.56,3.67,4.31a8.6,8.6,0,0,1,.19,3.85,4.81,4.81,0,0,0,.6,2.45c.42.56,2.35,2.14,3.11,3S208.89,26.89,207.57,26Zm-3.92-9.91c-.41-1.58-1.36-2.69-2.11-2.48s-1,1.67-.62,3.25,1.36,2.68,2.11,2.47S204.06,17.69,203.65,16.12Z"/><path class="cls-13" d="M136.69,63.67a13.88,13.88,0,0,1-2.87-.93,11.93,11.93,0,0,1-4-2.94c-1.08-1.58-1.36-3.3-.61-3.83s2.23.31,3.31,1.89a5.88,5.88,0,0,1,1,2.4,3.18,3.18,0,0,0,.93,1.42c.4.26,2,.82,2.66,1.18S137.73,63.91,136.69,63.67Zm-4.75-5.4c-.62-.9-1.48-1.39-1.9-1.08s-.28,1.29.35,2.19,1.47,1.4,1.9,1.09S132.56,59.18,131.94,58.27Z"/><path class="cls-14" d="M72.45,67a8.52,8.52,0,0,1-1.85-.61A7.45,7.45,0,0,1,68,64.47c-.7-1-.88-2.12-.39-2.47s1.44.2,2.13,1.22a3.71,3.71,0,0,1,.65,1.55,2.07,2.07,0,0,0,.61.92c.25.17,1.28.53,1.71.76S73.12,67.13,72.45,67Zm-3.07-3.49c-.4-.59-.95-.9-1.23-.7s-.17.83.23,1.42,1,.9,1.23.7S69.78,64.08,69.38,63.49Z"/><path class="cls-15" d="M17.31,11A6.4,6.4,0,0,1,16,10.38a5.65,5.65,0,0,1-1.76-1.6c-.44-.8-.49-1.63-.11-1.85S15.16,7.19,15.6,8A2.76,2.76,0,0,1,16,9.19a1.52,1.52,0,0,0,.38.71c.17.15.9.49,1.2.7S17.79,11.13,17.31,11Zm-2-2.8c-.26-.46-.64-.74-.86-.61s-.19.6.06,1.06.64.74.85.62S15.56,8.62,15.31,8.16Z"/><path class="cls-16" d="M17.31,29.83A6.4,6.4,0,0,1,16,29.25a5.65,5.65,0,0,1-1.76-1.6c-.44-.81-.49-1.64-.11-1.85s1.05.25,1.49,1.06A2.77,2.77,0,0,1,16,28.05a1.5,1.5,0,0,0,.38.72c.17.15.9.49,1.2.7S17.79,30,17.31,29.83Zm-2-2.8c-.26-.46-.64-.74-.86-.61s-.19.6.06,1.06.64.74.85.61S15.56,27.49,15.31,27Z"/><path class="cls-17" d="M17.31,48.7A6.4,6.4,0,0,1,16,48.12a5.78,5.78,0,0,1-1.76-1.6c-.44-.81-.49-1.64-.11-1.86s1.05.26,1.49,1.07A2.77,2.77,0,0,1,16,46.92a1.5,1.5,0,0,0,.38.72c.17.15.9.49,1.2.7S17.79,48.87,17.31,48.7Zm-2-2.8c-.26-.47-.64-.74-.86-.61s-.19.6.06,1.06.64.74.85.61S15.56,46.36,15.31,45.9Z"/><path class="cls-18" d="M17.31,67.46A7,7,0,0,1,16,66.88a5.78,5.78,0,0,1-1.76-1.6c-.44-.81-.49-1.64-.11-1.86s1.05.26,1.49,1.07A2.77,2.77,0,0,1,16,65.68a1.5,1.5,0,0,0,.38.72c.17.14.9.49,1.2.69S17.79,67.63,17.31,67.46Zm-2-2.8c-.26-.47-.64-.74-.86-.62s-.19.61.06,1.07.64.74.85.61S15.56,65.12,15.31,64.66Z"/></g></svg>