<?xml version="1.0" encoding="utf-8"?>
<!-- Generator: Adobe Illustrator 26.0.1, SVG Export Plug-In . SVG Version: 6.00 Build 0)  -->
<svg version="1.1" id="Layer_1" xmlns="http://www.w3.org/2000/svg" xmlns:xlink="http://www.w3.org/1999/xlink" x="0px" y="0px"
	 viewBox="0 0 413.5 260.2" style="enable-background:new 0 0 413.5 260.2;" xml:space="preserve">
<style type="text/css">
	.st0{opacity:0.5;}
	.st1{fill:url(#SVGID_1_);}
	.st2{fill:url(#SVGID_00000141420655565852713610000011707475093287201946_);}
	.st3{enable-background:new    ;}
	.st4{fill:#231F20;}
</style>
<g id="Layer_4">
	<g class="st0">
		
			<radialGradient id="SVGID_1_" cx="206.7234" cy="98.5462" r="137.6234" gradientTransform="matrix(1 0 0 -1 0 262)" gradientUnits="userSpaceOnUse">
			<stop  offset="0" style="stop-color:#231F20;stop-opacity:0.32"/>
			<stop  offset="1" style="stop-color:#231F20;stop-opacity:0.75"/>
		</radialGradient>
		<path class="st1" d="M30.4,148.4c-12.9,6.3-15.4,12.4-13.6,21.1s11.8,15.1,25.4,16.9s35.6,6,65.8,9.7s57.7,8.5,91.2,7.2
			s107.2-2.7,129.3-8.1s35.3-4.5,43.2-15.7s11.8-31.1,11.8-31.1s21.1-20.2,10.9-20.2s-8.1,4.5-16.9,2.1s-40.4-2.4-53.4-5.7
			s-60.7,0.9-83.4,0s-80.5-2.1-106.8,3.3s-42.1,2.4-66.8,8.8S39.8,143.9,30.4,148.4z"/>
	</g>
	
		<radialGradient id="SVGID_00000070798318192036953940000013425164017893805989_" cx="226.1507" cy="98.65" r="31.3682" gradientTransform="matrix(1 0 0 -1 0 262)" gradientUnits="userSpaceOnUse">
		<stop  offset="0" style="stop-color:#ED1C24"/>
		<stop  offset="0.9" style="stop-color:#BE1E2D"/>
	</radialGradient>
	<path style="fill:url(#SVGID_00000070798318192036953940000013425164017893805989_);" d="M211.4,126.1c0,0,21.9,0.8,26.4,0.9
		s9.6,0,9.6,0c3,14,3.7,28.5,1.9,42.7c-2.9,23.8-7.1,29.8-7.1,29.8l-40.1,1.1c0,0,10.1-14.6,11-39.5
		C213.7,140.1,211.4,126.1,211.4,126.1z"/>
	<g class="st3">
		<path class="st4" d="M48,92.2l-9.4-29h4l4.5,14.3c1.2,3.9,2.3,7.4,3.1,10.8h0.1c0.8-3.3,2-7,3.3-10.8l4.9-14.3h4l-10.4,29H48z"/>
	</g>
	<g class="st3">
		<path class="st4" d="M66.2,82.5c0.1,5.1,3.4,7.2,7.1,7.2c2.7,0,4.3-0.5,5.8-1.1l0.6,2.7c-1.3,0.6-3.6,1.3-6.9,1.3
			c-6.4,0-10.2-4.2-10.2-10.5c0-6.3,3.7-11.2,9.8-11.2c6.8,0,8.6,6,8.6,9.8c0,0.8-0.1,1.4-0.1,1.8H66.2z M77.3,79.8
			c0-2.4-1-6.1-5.2-6.1c-3.8,0-5.5,3.5-5.8,6.1H77.3z"/>
	</g>
	<g class="st3">
		<path class="st4" d="M85.6,77c0-2.1,0-3.9-0.2-5.6h3.4l0.2,3.4h0.1c1-2,3.4-3.9,6.9-3.9c2.9,0,7.3,1.7,7.3,8.8v12.4h-3.8v-12
			c0-3.3-1.2-6.1-4.8-6.1c-2.5,0-4.4,1.8-5.1,3.9c-0.2,0.5-0.3,1.1-0.3,1.8v12.5h-3.8V77z"/>
	</g>
	<g class="st3">
		<path class="st4" d="M113.8,65.4v6h5.4v2.9h-5.4v11.2c0,2.6,0.7,4,2.8,4c1,0,1.7-0.1,2.2-0.3l0.2,2.8c-0.7,0.3-1.9,0.5-3.4,0.5
			c-1.8,0-3.2-0.6-4.1-1.6c-1.1-1.1-1.5-3-1.5-5.4V74.3h-3.2v-2.9h3.2v-5L113.8,65.4z"/>
	</g>
	<g class="st3">
		<path class="st4" d="M123.5,77.9c0-2.4,0-4.6-0.2-6.5h3.3l0.1,4.1h0.2c0.9-2.8,3.2-4.6,5.8-4.6c0.4,0,0.7,0,1.1,0.1v3.6
			c-0.4-0.1-0.8-0.1-1.3-0.1c-2.7,0-4.6,2-5.1,4.9c-0.1,0.5-0.2,1.1-0.2,1.8v11.1h-3.7V77.9z"/>
	</g>
	<g class="st3">
		<path class="st4" d="M148.8,92.2l-0.3-2.6h-0.1c-1.2,1.6-3.4,3.1-6.4,3.1c-4.2,0-6.4-3-6.4-6c0-5,4.5-7.8,12.5-7.7v-0.4
			c0-1.7-0.5-4.8-4.7-4.8c-1.9,0-4,0.6-5.4,1.5l-0.9-2.5c1.7-1.1,4.2-1.8,6.8-1.8c6.4,0,7.9,4.3,7.9,8.5v7.8c0,1.8,0.1,3.6,0.3,5
			H148.8z M148.3,81.6c-4.1-0.1-8.8,0.6-8.8,4.7c0,2.4,1.6,3.6,3.6,3.6c2.7,0,4.4-1.7,5-3.5c0.1-0.4,0.2-0.8,0.2-1.2V81.6z"/>
		<path class="st4" d="M158,61.7h3.8v30.5H158V61.7z"/>
		<path class="st4" d="M177.4,92.2v-29h4.1l9.3,14.6c2.1,3.4,3.8,6.4,5.2,9.4l0.1,0c-0.3-3.9-0.4-7.4-0.4-11.9V63.2h3.5v29h-3.8
			l-9.2-14.7c-2-3.2-4-6.5-5.4-9.7l-0.1,0c0.2,3.7,0.3,7.1,0.3,11.9v12.4H177.4z"/>
		<path class="st4" d="M207.6,82.5c0.1,5.1,3.4,7.2,7.1,7.2c2.7,0,4.3-0.5,5.8-1.1l0.6,2.7c-1.3,0.6-3.6,1.3-6.9,1.3
			c-6.4,0-10.2-4.2-10.2-10.5c0-6.3,3.7-11.2,9.8-11.2c6.8,0,8.6,6,8.6,9.8c0,0.8-0.1,1.4-0.1,1.8H207.6z M218.7,79.8
			c0-2.4-1-6.1-5.2-6.1c-3.8,0-5.5,3.5-5.8,6.1H218.7z"/>
	</g>
	<g class="st3">
		<path class="st4" d="M227,77.9c0-2.4,0-4.6-0.2-6.5h3.3l0.1,4.1h0.2c0.9-2.8,3.2-4.6,5.8-4.6c0.4,0,0.7,0,1.1,0.1v3.6
			c-0.4-0.1-0.8-0.1-1.3-0.1c-2.7,0-4.6,2-5.1,4.9c-0.1,0.5-0.2,1.1-0.2,1.8v11.1H227V77.9z"/>
	</g>
	<g class="st3">
		<path class="st4" d="M243.6,71.4l4.1,11.7c0.7,1.9,1.2,3.6,1.7,5.3h0.1c0.5-1.7,1.1-3.4,1.8-5.3l4-11.7h4l-8.2,20.8h-3.6
			l-7.9-20.8H243.6z"/>
	</g>
	<g class="st3">
		<path class="st4" d="M264.5,82.5c0.1,5.1,3.4,7.2,7.1,7.2c2.7,0,4.3-0.5,5.8-1.1l0.6,2.7c-1.3,0.6-3.6,1.3-6.9,1.3
			c-6.4,0-10.2-4.2-10.2-10.5c0-6.3,3.7-11.2,9.8-11.2c6.8,0,8.6,6,8.6,9.8c0,0.8-0.1,1.4-0.1,1.8H264.5z M275.6,79.8
			c0-2.4-1-6.1-5.2-6.1c-3.8,0-5.5,3.5-5.8,6.1H275.6z"/>
	</g>
	<g class="st3">
		<path class="st4" d="M313.3,91.2c-1.4,0.7-4.1,1.4-7.6,1.4c-8.2,0-14.3-5.2-14.3-14.6c0-9.1,6.1-15.2,15.1-15.2
			c3.6,0,5.9,0.8,6.9,1.3l-0.9,3c-1.4-0.7-3.4-1.2-5.8-1.2c-6.8,0-11.3,4.3-11.3,11.9c0,7.1,4.1,11.6,11.1,11.6
			c2.3,0,4.6-0.5,6.1-1.2L313.3,91.2z"/>
	</g>
	<g class="st3">
		<path class="st4" d="M336.2,81.6c0,7.7-5.3,11-10.4,11c-5.6,0-10-4.1-10-10.7c0-7,4.6-11,10.3-11
			C332.2,70.9,336.2,75.2,336.2,81.6z M319.7,81.8c0,4.6,2.6,8,6.3,8c3.6,0,6.3-3.4,6.3-8.1c0-3.5-1.8-8-6.2-8
			C321.7,73.7,319.7,77.9,319.7,81.8z"/>
	</g>
	<g class="st3">
		<path class="st4" d="M341,77.9c0-2.4,0-4.6-0.2-6.5h3.3l0.1,4.1h0.2c0.9-2.8,3.2-4.6,5.8-4.6c0.4,0,0.7,0,1.1,0.1v3.6
			c-0.4-0.1-0.8-0.1-1.3-0.1c-2.7,0-4.6,2-5.1,4.9c-0.1,0.5-0.2,1.1-0.2,1.8v11.1H341V77.9z"/>
	</g>
	<g class="st3">
		<path class="st4" d="M372.6,61.7v25.1c0,1.8,0,4,0.2,5.4h-3.4l-0.2-3.6h-0.1c-1.2,2.3-3.7,4.1-7.1,4.1c-5,0-8.9-4.3-8.9-10.6
			c0-6.9,4.3-11.2,9.3-11.2c3.2,0,5.3,1.5,6.3,3.2h0.1V61.7H372.6z M368.8,79.8c0-0.5,0-1.1-0.2-1.6c-0.6-2.4-2.6-4.4-5.5-4.4
			c-3.9,0-6.2,3.4-6.2,8c0,4.2,2.1,7.7,6.1,7.7c2.5,0,4.9-1.7,5.5-4.5c0.1-0.5,0.2-1,0.2-1.6V79.8z"/>
	</g>
</g>
</svg>
