<svg id="Layer_4" data-name="Layer 4" xmlns="http://www.w3.org/2000/svg" xmlns:xlink="http://www.w3.org/1999/xlink" viewBox="0 0 413.45 260.22"><defs><style>.cls-1{fill:url(#radial-gradient);}.cls-2{fill:#ed1c24;}</style><radialGradient id="radial-gradient" cx="206.72" cy="134.85" r="160.79" gradientTransform="translate(0 -10.03) scale(1 1.07)" gradientUnits="userSpaceOnUse"><stop offset="0" stop-color="#231f20" stop-opacity="0.32"/><stop offset="1" stop-color="#231f20" stop-opacity="0.75"/></radialGradient></defs><path class="cls-1" d="M404.06,105.47c-2.45,19.49-11.31,39.92-24.64,40.38-13.11.45-32.45-18.32-40.12-37.14-1.56,9.81-4.4,19.19-9.51,26.57l-.85.07c-12.62,0-25.37-7.32-25.91-7.64l-.57-.36a6.23,6.23,0,0,0-2.72-.91c-.25-4.83-.45-9.42-.6-13.28-.49-11.63-.6-13.11-1.09-14.35-.75-1.93-4-7.43-9.18-7.43-1.84,0-5.26.76-7.58,5.83-3.26,7.12-10.74,28.71-11.05,29.62a17.27,17.27,0,0,0-.6,2.37c-2.49-.12-6.14-.22-6.34-.37-38.2-31.11-41.41-31.51-42.8-31.67-.18,0-.43,0-.61,0-9.59,0-22.41,44.87-24.3,55.46-.24,1.28-.53,2.53-.8,3.8C185.68,161.62,176.5,167,169,172.68c-13,9.83-36.53,16.38-47.38,7.57-20.25-16.42-6.21-52.62,17.29-81.61s54.83-33.41,75.09-17c2.32,1.88,4.64,3.57,6.92,5.18-1.9-6.2-4.42-13.18-6.24-19.87C256.65,56.7,256.32,51,256,47.18c-.64-8.06-9.61-8-15-7.88-1.38,0-2.79,0-4.08,0-3.57-.19-8.11-.48-13.33-.82h-.27c12-5.92,29.35-8.1,47.22-8.73,38.39-1.32,67.27,14.83,70,42.05,5-10.51,13.67-17.6,23.74-18,8.86-.3,19.67,4.52,27.87,12.5,7,6.82,12.57,8.19,15.1,18C410.64,97.16,404.61,101,404.06,105.47ZM358.53,70.56c-11,3.27-16.2,18.09-11.71,33.09s17,24.47,28,21.19,20.77-20,16.29-34.92S369.5,67.27,358.53,70.56ZM236.7,43.68c-21.53-1.2-78-5.65-108.39-3.27C60.94,45.71,4.42,67.16,5.14,76.39s25.62,9.93,93,4.65,154.2-24.29,153.48-33.5C251.21,42.47,243,44,236.7,43.68ZM178.87,219.55c.95-1.07,23-26.79,29.79-64.63,2.55-14.31,10.59-36,14.37-39.95s31.2,22,31.2,22c1.93,1.46,8.33,2.08,9.81.13s-1.47-3.29-3.41-4.77c0,0-37.33-30.41-40.67-30.81s-16.31,31.11-20,51.82c-6.33,35.33-27.53,60.14-27.75,60.38-1.59,1.84-9.76,10.52-7.9,12.12.83.74,10.23-4.79,11.26-4.79A4.34,4.34,0,0,0,178.87,219.55ZM370.35,234c2.22-1-6.13-8.59-7.11-10.83-4.55-10.3-16.6-38.93-17.8-47.5-1.16-8.31,2.63-24.68,4.18-30.3,0,0,2.25-3.81,1.31-5.61s-21.6,0-21.6,0c-14.58,0-28.39-8.13-28.53-8.21-2.1-1.26-.5-.79-1.76,1.3s.16,7.78,2.26,9c.64.4,11,6.73,28,6.73,0,0,11.47-2.61,10.36,0s-4.16,20.05-3,28.28c1.58,11.35,16.74,46,18.47,49.86a4.43,4.43,0,0,0,4.05,2.64C359.79,229.38,369.76,234.26,370.35,234Zm-29.29,6.08c2.05-1.34-3.39-8.3-4.7-10.35-9.42-14.42-34.54-54.83-37.58-68.26-3.72-16.52-4-58.91-4.87-61.05s-5.39-8.36-8.6-1.35-10.89,29.22-10.89,29.22c-.82,2.29-1.89,10.66.41,11.47s5,1.57,5.77-.73L286,123.68c.76,13.85,2,30.5,4.13,39.74,4,17.71,37.36,69,38.78,71.14a4.46,4.46,0,0,0,3.71,2C333.47,236.56,341.06,240.07,341.06,240.07ZM278.28,145a14.87,14.87,0,0,1-4.92-1,6.19,6.19,0,0,1-2.81-2.39A58.15,58.15,0,0,1,260,142.78c-2.62,0-6.21-.59-8.43-2.26l-.35-.31c-9.43-8.94-21.38-18.76-25.92-20.83-2.36,3.93-6.41,14.22-9.38,24.48,6.41-4.11,12-8.18,15.51-12.27,10.82,12.7,30.91,17.63,52.27,18.7-.25-2.19-.48-4.5-.71-7A6.87,6.87,0,0,1,278.28,145Zm23.27,5.38a46.79,46.79,0,0,0,6.36-.73,50.54,50.54,0,0,1-6.73-2.79C301.3,148,301.42,149.21,301.55,150.36Z"/><path class="cls-2" d="M392.14,87.17c-2,13.43-9.27,23.79-17.63,23.79-5.08,0-9.08-1.37-11.83-7.6-1.77-4-4.33-18-4.33-23.34,0-4.39,3.95-11,6.84-14.45,5.1-6,6.44-6.94,12-5.93C384.73,61,393.83,75.89,392.14,87.17Z"/></svg>