<?xml version="1.0" encoding="utf-8"?>
<!-- Generator: Adobe Illustrator 26.0.1, SVG Export Plug-In . SVG Version: 6.00 Build 0)  -->
<svg version="1.1" id="Layer_1" xmlns="http://www.w3.org/2000/svg" xmlns:xlink="http://www.w3.org/1999/xlink" x="0px" y="0px"
	 viewBox="0 0 413.5 260.2" style="enable-background:new 0 0 413.5 260.2;" xml:space="preserve">
<style type="text/css">
	.st0{opacity:0.5;}
	.st1{fill:url(#SVGID_1_);}
	.st2{fill:#ED1C24;}
	.st3{enable-background:new    ;}
	.st4{fill:#231F20;}
</style>
<g id="Layer_4">
	<g id="Drosophila" class="st0">
		
			<radialGradient id="SVGID_1_" cx="-165.5002" cy="55.3165" r="420.2001" gradientTransform="matrix(1 0 0 -1.07 0 282.23)" gradientUnits="userSpaceOnUse">
			<stop  offset="0" style="stop-color:#231F20;stop-opacity:0.32"/>
			<stop  offset="1" style="stop-color:#231F20;stop-opacity:0.75"/>
		</radialGradient>
		<path class="st1" d="M350.2,147.2c-6.4,50.9-29.5,104.4-64.4,105.6c-34.3,1.2-84.8-47.9-104.8-97.1c-4.1,25.6-11.5,50.2-24.9,69.4
			c-1.2,0.1-2.1,0.2-2.2,0.2c-33,0-66.3-19.1-67.7-20l-1.5-0.9c-2.2-1.3-4.6-2.1-7.1-2.4c-0.7-12.6-1.2-24.6-1.6-34.7
			c-1.3-30.4-1.6-34.3-2.8-37.5c-2-5-10.5-19.4-24-19.4c-4.8,0-13.8,2-19.8,15.2c-8.5,18.6-28.1,75-28.9,77.4
			c-0.6,2-1.2,4.1-1.5,6.2c-6.5-0.3-16.1-0.6-16.6-1c-99.8-81.2-108.2-82.2-111.8-82.7c-0.5-0.1-1.1-0.1-1.6-0.1
			c-25.1,0-58.6,117.3-63.5,144.9c-0.6,3.3-1.3,6.6-2.1,9.9c-23.8,13.7-47.8,27.8-67.3,42.6c-34,25.7-95.4,42.8-123.8,19.8
			c-52.9-42.9-16.2-137.5,45.2-213.3S-199.3,42.1-146.4,85c6.1,4.9,12.1,9.3,18.1,13.5c-5-16.2-11.6-34.5-16.3-51.9
			C-35,19.8-35.9,4.9-36.7-5.1c-1.7-21.1-25.1-20.9-39.1-20.6c-3.6,0-7.3,0-10.7-0.1c-9.3-0.5-21.2-1.3-34.8-2.1c-0.2,0-0.5,0-0.7,0
			C-90.7-43.4-45.3-49.1,1.4-50.8c100.3-3.4,175.8,38.8,183,109.9c13.1-27.5,35.7-46,62-46.9c23.2-0.8,51.4,11.8,72.8,32.7
			c18.4,17.8,32.9,21.4,39.5,47.1C367.4,125.5,351.6,135.5,350.2,147.2z M231.2,56c-28.7,8.6-42.3,47.3-30.6,86.5
			s44.5,63.9,73.1,55.4s54.3-52.1,42.6-91.2S259.9,47.4,231.2,56z M-87.2-14.2C-143.4-17.4-291-29-370.4-22.8
			c-176.1,13.9-323.8,69.9-321.9,94s66.9,26,243,12.1s403-63.4,401.1-87.5C-49.2-17.4-70.8-13.3-87.2-14.2z M-238.3,445.4
			c2.5-2.8,60.1-70,77.8-168.9c6.7-37.4,27.7-94.1,37.6-104.4s81.5,57.6,81.5,57.6c5.1,3.8,21.8,5.5,25.6,0.4s-3.8-8.6-8.9-12.5
			c0,0-97.6-79.5-106.3-80.5s-42.6,81.3-52.3,135.4c-16.6,92.4-71.9,157.2-72.5,157.8c-4.1,4.8-25.5,27.5-20.7,31.7
			c2.2,1.9,26.7-12.5,29.4-12.5C-243.6,449.4-240.5,447.9-238.3,445.4z M262.1,483.1c5.8-2.6-16-22.5-18.6-28.3
			c-11.9-26.9-43.4-101.8-46.5-124.1c-3-21.7,6.9-64.5,10.9-79.2c0,0,5.9-9.9,3.4-14.6s-56.5,0-56.5,0c-38.1,0-74.2-21.3-74.6-21.5
			c-5.5-3.2-1.3-2.1-4.6,3.4s0.4,20.3,5.9,23.6c1.7,1,28.6,17.6,73.2,17.6c0,0,30-6.9,27.1,0s-10.9,52.4-7.9,73.9
			c4.1,29.6,43.7,120.1,48.3,130.3c1.9,4.2,6,6.9,10.6,6.9C234.5,471.1,260.5,483.8,262.1,483.1z M185.6,499
			c5.4-3.5-8.9-21.7-12.3-27C148.7,434.3,83,328.7,75.1,293.6c-9.7-43.2-10.6-154-12.7-159.6s-14.1-21.9-22.5-3.5
			s-28.5,76.4-28.5,76.4c-2.1,6-4.9,27.9,1.1,30s12.9,4.1,15.1-1.9l14.1-40.1c2,36.2,5.3,79.7,10.8,103.9
			C63,345,150.1,478.9,153.9,484.6c2.1,3.3,5.8,5.2,9.7,5.2C165.7,489.8,185.6,499,185.6,499z M21.5,250.5c-4.5,0-8.8-1.3-12.9-2.7
			c-3-1.3-5.6-3.5-7.3-6.2c-9.1,1.9-18.4,3-27.7,3.3c-6.8,0-16.2-1.6-22-5.9c-0.3-0.2-0.6-0.5-0.9-0.8c-24.6-23.4-55.9-49-67.7-54.4
			c-6.2,10.3-16.8,37.2-24.5,64c16.7-10.7,31.2-21.4,40.5-32.1c28.3,33.2,80.8,46.1,136.6,48.9c-0.6-5.7-1.2-11.8-1.8-18.3
			C30.3,249,26,250.6,21.5,250.5z M82.3,264.5c5.6-0.2,11.1-0.9,16.6-1.9c-6-2-11.9-4.4-17.6-7.3C81.7,258.5,82,261.6,82.3,264.5z"
			/>
	</g>
	<circle class="st2" cx="273.3" cy="68.3" r="32.2"/>
	<g id="Visual_Cortex">
		<g class="st3">
			<path class="st4" d="M179.3,126.8c-0.2-4-0.5-8.9-0.4-12.5h-0.1c-1,3.4-2.2,7-3.7,11l-5.1,14h-2.8l-4.7-13.8
				c-1.4-4.1-2.5-7.8-3.4-11.3H159c-0.1,3.6-0.3,8.5-0.6,12.8l-0.8,12.4h-3.6l2-28.9h4.8l4.9,14c1.2,3.6,2.2,6.7,2.9,9.8h0.1
				c0.7-2.9,1.8-6.1,3-9.8l5.2-14h4.8l1.8,28.9H180L179.3,126.8z"/>
		</g>
		<g class="st3">
			<path class="st4" d="M191.7,129.9c0.1,5.1,3.4,7.2,7.1,7.2c2.7,0,4.3-0.5,5.8-1.1l0.6,2.7c-1.3,0.6-3.6,1.3-6.9,1.3
				c-6.4,0-10.2-4.2-10.2-10.5c0-6.3,3.7-11.2,9.8-11.2c6.8,0,8.6,6,8.6,9.8c0,0.8-0.1,1.4-0.1,1.8H191.7z M202.7,127.1
				c0-2.4-1-6.1-5.2-6.1c-3.8,0-5.5,3.5-5.8,6.1H202.7z"/>
			<path class="st4" d="M229,109.1v25.1c0,1.8,0,4,0.2,5.4h-3.4l-0.2-3.6h-0.1c-1.2,2.3-3.7,4.1-7.1,4.1c-5,0-8.9-4.3-8.9-10.6
				c0-6.9,4.3-11.2,9.3-11.2c3.2,0,5.3,1.5,6.3,3.2h0.1v-12.4H229z M225.2,127.2c0-0.5,0-1.1-0.2-1.6c-0.6-2.4-2.6-4.4-5.5-4.4
				c-3.9,0-6.2,3.4-6.2,8c0,4.2,2.1,7.7,6.1,7.7c2.5,0,4.9-1.7,5.5-4.5c0.1-0.5,0.2-1,0.2-1.6V127.2z"/>
			<path class="st4" d="M252.7,133.9c0,2.1,0,4,0.2,5.7h-3.4l-0.2-3.4h-0.1c-1,1.7-3.2,3.9-6.9,3.9c-3.3,0-7.2-1.8-7.2-9.1v-12.2
				h3.8v11.5c0,4,1.2,6.6,4.6,6.6c2.5,0,4.3-1.8,5-3.4c0.2-0.6,0.3-1.2,0.3-1.9v-12.8h3.8V133.9z"/>
			<path class="st4" d="M259,109.1h3.8v30.5H259V109.1z"/>
			<path class="st4" d="M269.1,109.1h3.8v30.5h-3.8V109.1z"/>
			<path class="st4" d="M290.7,139.6l-0.3-2.6h-0.1c-1.2,1.6-3.4,3.1-6.4,3.1c-4.2,0-6.4-3-6.4-6c0-5,4.5-7.8,12.5-7.7v-0.4
				c0-1.7-0.5-4.8-4.7-4.8c-1.9,0-4,0.6-5.4,1.5l-0.9-2.5c1.7-1.1,4.2-1.8,6.8-1.8c6.4,0,7.9,4.3,7.9,8.5v7.8c0,1.8,0.1,3.6,0.3,5
				H290.7z M290.2,129c-4.1-0.1-8.8,0.6-8.8,4.7c0,2.4,1.6,3.6,3.6,3.6c2.7,0,4.4-1.7,5-3.5c0.1-0.4,0.2-0.8,0.2-1.2V129z"/>
		</g>
	</g>
</g>
</svg>
