<svg xmlns="http://www.w3.org/2000/svg" xmlns:xlink="http://www.w3.org/1999/xlink" viewBox="0 0 413.45 260.22"><defs><style>.cls-1{opacity:0.5;}.cls-2{fill:url(#radial-gradient);}.cls-3{fill:url(#radial-gradient-2);}.cls-4{fill:url(#radial-gradient-3);}</style><radialGradient id="radial-gradient" cx="246.15" cy="218.71" r="183.58" gradientTransform="matrix(1, 0.03, -0.03, 1, -42.5, -1.55)" gradientUnits="userSpaceOnUse"><stop offset="0" stop-color="#231f20" stop-opacity="0.32"/><stop offset="1" stop-color="#231f20" stop-opacity="0.75"/></radialGradient><radialGradient id="radial-gradient-2" cx="217.8" cy="180.52" r="128.68" gradientTransform="matrix(1, 0, 0, 1, 0, 0)" xlink:href="#radial-gradient"/><radialGradient id="radial-gradient-3" cx="217.8" cy="180.52" r="128.68" gradientUnits="userSpaceOnUse"><stop offset="0" stop-color="#ed1c24" stop-opacity="0.32"/><stop offset="1" stop-color="#ed1c24" stop-opacity="0.75"/></radialGradient></defs><g id="Layer_4" data-name="Layer 4"><g id="Human"><g class="cls-1"><path class="cls-2" d="M351.08,422.59c-5-7.51-10.38-45.15-12.44-60.95s-12.17-36.2-3-69.85,20-91.08,20-119.09,3.72-67.64-12.66-92.46-32.43-41.15-62.32-50.6-47.79-12.73-94-9.1c-38.91,3.06-59.48,15.9-74.9,34.08A148.14,148.14,0,0,0,92.34,84.86,217.26,217.26,0,0,0,81,112.69c-3.41,8.51-3.32,24.69-4.24,36.14s3.1,21.66,1.29,27.16S63.62,196.81,58,201.71c-4.85,4.21-10.35,12-12.82,15s-9.43,15.1-5.76,20.05a40.73,40.73,0,0,0,5.12,5c4.43,3.28,20.48,6.76,21.41,7,1,.64,2.23,1.26,1.82,3.84-2.11,4-5.92,11.5-5.92,11.5a18.21,18.21,0,0,0,.82,9.75c1.94,4.91,3.33,5,1.64,8.47A23.11,23.11,0,0,0,62.8,297s7.19,6.92,9.67,13.89-1.59,15.64.9,25.32,5.3,16.28,17.73,19.08c24.69,5.57,42.89-6.35,58.25-3.69s4.11,61.23,3.07,76.41"/></g><path class="cls-3" d="M262.36,317.57s-18-80.48-18-83.22-2.54-8.66,1.36-10.23a2,2,0,0,0,1-.77c3.36,2.29,8.5,3.08,10.52,3.37,3,.43,5.21,2.54,11.29,4.67s12.18,1.76,18.72.72,15.89-9.87,20.46-14.34,5.82-10.06,5.39-13.27a85.47,85.47,0,0,0-2.55-10.35,55.86,55.86,0,0,0,7.41-3c2.69-1.18,7.28-5,9.61-8.36s7.65-18.62,8.43-20.48,1.16-12.09,1.51-15.74-.46-12.49-1.53-14.37c-.81-1.41-4.16-5.2-6.08-6.19a9,9,0,0,0,0-3.18,18.78,18.78,0,0,0-5.35-9.43c-1.19-.94.13-3-.3-5S320.78,98,319.38,97.82s-.84-.12-1.33-.95-.9-8.74-2.91-10.31-3.74-3.68-4.43-4.16-.45-1.49-1.4-3.34a45.13,45.13,0,0,0-4.58-6.32c-1.34-1.63-3.61-4.19-5.07-4.31-.37,0-.56.12-.64.31-1.16-1.53-8.8-1.39-9.65-2.11s-2.22-3-4-4.2-3-1.34-3.81-2.08-.82-1.34-2.2-2-6-1.06-7.25-2.19a31.52,31.52,0,0,0-9-5c-3-.83-13.19-2.93-14.63-2.58s-3.13.45-6.22-1.73-12.61-3.39-14-3.36-2.32,2-4.19,1.53-6.61-1.07-9-.47-7.62,2.34-11.28,2.36a38.27,38.27,0,0,0-9.41,1.2,40.1,40.1,0,0,1-8.83.88c-1.3-.06-1.1,1.22-4.86,1s-7.92-.71-10.7.22-4.28,4.26-7.06,4.33a49.94,49.94,0,0,0-8.71,1.26c-2.22.5-6.4,8-9,8.54s-7.62,1.54-10.51,2.93-7.89,4.87-8.09,5.71-.37,2.58-1.75,3.67-8.68,6.85-9.54,7.55-5.91,4.84-6.25,5.7-2.64,1.74-3.76,3.07-2.8,2.78-2.78,5,1.17,5.25.65,6-3.31,2-3.91,4.38-1.83,8-.69,10,3.22,3,3.13,4.22a59.2,59.2,0,0,0,.61,6.54,14.74,14.74,0,0,0,1.31,4.31c.48,1,2.22,2.33,2.35,4.08s2.22,5,3.2,6,4.13,4.33,6.3,4.69,3.56,1.53,5.28,2.45,12.19,2.86,14,2.73,2.79.45,4.32.94,1.38-.23,4.07-.23c1.76,0,2.5,3.17,2.81,5.6-2,4-3.58,8.3-2.11,11.39,1.67,3.55,4,4.67,8.28,7.8s7.24,2.31,10.14,4.3,7.18,7.33,11.27,8.08,20.84-1.08,23.25-2.62a7.4,7.4,0,0,0,1.62-1.55c2.06-.06,3.49-.23,4,.91.76,1.68,3.72,1.38,5.17,6.19.78,2.6-1.4,16.68,9.7,22,4.55,2.16,6.86,7.6,7.54,10.63s20.87,86.78,20.87,86.78"/></g><path class="cls-4" d="M262.36,317.57s-18-80.48-18-83.22-2.54-8.66,1.36-10.23a2,2,0,0,0,1-.77c3.36,2.29,8.5,3.08,10.52,3.37,3,.43,5.21,2.54,11.29,4.67s12.18,1.76,18.72.72,15.89-9.87,20.46-14.34,5.82-10.06,5.39-13.27a85.47,85.47,0,0,0-2.55-10.35,55.86,55.86,0,0,0,7.41-3c2.69-1.18,7.28-5,9.61-8.36s7.65-18.62,8.43-20.48,1.16-12.09,1.51-15.74-.46-12.49-1.53-14.37c-.81-1.41-4.16-5.2-6.08-6.19a9,9,0,0,0,0-3.18,18.78,18.78,0,0,0-5.35-9.43c-1.19-.94.13-3-.3-5S320.78,98,319.38,97.82s-.84-.12-1.33-.95-.9-8.74-2.91-10.31-3.74-3.68-4.43-4.16-.45-1.49-1.4-3.34a45.13,45.13,0,0,0-4.58-6.32c-1.34-1.63-3.61-4.19-5.07-4.31-.37,0-.56.12-.64.31-1.16-1.53-8.8-1.39-9.65-2.11s-2.22-3-4-4.2-3-1.34-3.81-2.08-.82-1.34-2.2-2-6-1.06-7.25-2.19a31.52,31.52,0,0,0-9-5c-3-.83-13.19-2.93-14.63-2.58s-3.13.45-6.22-1.73-12.61-3.39-14-3.36-2.32,2-4.19,1.53-6.61-1.07-9-.47-7.62,2.34-11.28,2.36a38.27,38.27,0,0,0-9.41,1.2,40.1,40.1,0,0,1-8.83.88c-1.3-.06-1.1,1.22-4.86,1s-7.92-.71-10.7.22-4.28,4.26-7.06,4.33a49.94,49.94,0,0,0-8.71,1.26c-2.22.5-6.4,8-9,8.54s-7.62,1.54-10.51,2.93-7.89,4.87-8.09,5.71-.37,2.58-1.75,3.67-8.68,6.85-9.54,7.55-5.91,4.84-6.25,5.7-2.64,1.74-3.76,3.07-2.8,2.78-2.78,5,1.17,5.25.65,6-3.31,2-3.91,4.38-1.83,8-.69,10,3.22,3,3.13,4.22a59.2,59.2,0,0,0,.61,6.54,14.74,14.74,0,0,0,1.31,4.31c.48,1,2.22,2.33,2.35,4.08s2.22,5,3.2,6,4.13,4.33,6.3,4.69,3.56,1.53,5.28,2.45,12.19,2.86,14,2.73,2.79.45,4.32.94,1.38-.23,4.07-.23c1.76,0,2.5,3.17,2.81,5.6-2,4-3.58,8.3-2.11,11.39,1.67,3.55,4,4.67,8.28,7.8s7.24,2.31,10.14,4.3,7.18,7.33,11.27,8.08,20.84-1.08,23.25-2.62a7.4,7.4,0,0,0,1.62-1.55c2.06-.06,3.49-.23,4,.91.76,1.68,3.72,1.38,5.17,6.19.78,2.6-1.4,16.68,9.7,22,4.55,2.16,6.86,7.6,7.54,10.63s20.87,86.78,20.87,86.78"/></g></svg>