<?xml version="1.0" encoding="utf-8"?>
<!-- Generator: Adobe Illustrator 26.0.1, SVG Export Plug-In . SVG Version: 6.00 Build 0)  -->
<svg version="1.1" id="Layer_1" xmlns="http://www.w3.org/2000/svg" xmlns:xlink="http://www.w3.org/1999/xlink" x="0px" y="0px"
	 viewBox="0 0 413.5 260.2" style="enable-background:new 0 0 413.5 260.2;" xml:space="preserve">
<style type="text/css">
	.st0{fill:url(#SVGID_1_);}
	.st1{fill:url(#SVGID_00000041977253427820765620000012070779755658183326_);}
	.st2{fill:#ED1C24;}
	.st3{opacity:0.75;}
	.st4{opacity:0.25;}
	.st5{fill:#8B1950;}
	.st6{fill:#231F20;}
	.st7{opacity:0.5;}
	.st8{fill:url(#SVGID_00000116228292781150211930000014865131408000406416_);}
	.st9{fill:url(#SVGID_00000098908289045034278990000008066184099757479343_);stroke:#9DA3AA;stroke-width:0.21;}
	.st10{clip-path:url(#SVGID_00000150088825882742671310000015348221668272103835_);}
	.st11{clip-path:url(#SVGID_00000034053081468545814270000004697604571112190626_);}
	.st12{fill:url(#SVGID_00000094601266529696016990000011279483938133508274_);stroke:#9DA3AA;stroke-width:0.21;}
	.st13{fill:url(#SVGID_00000178927821197911580610000003759120163864803968_);stroke:#9DA3AA;stroke-width:0.21;}
	.st14{fill:url(#SVGID_00000129900115970556217940000006783765412095626372_);stroke:#9DA3AA;stroke-width:0.21;}
	.st15{fill:url(#SVGID_00000144335156539100569340000017607900605285941669_);stroke:#9DA3AA;stroke-width:0.21;}
	.st16{fill:url(#SVGID_00000147931820977625387320000007451845800965600900_);stroke:#9DA3AA;stroke-width:0.21;}
	.st17{fill:url(#SVGID_00000163783845056416756810000018174952852738045110_);stroke:#9DA3AA;stroke-width:0.21;}
	.st18{fill:url(#SVGID_00000094589519667161628200000007531781564203644809_);stroke:#9DA3AA;stroke-width:0.21;}
	.st19{fill:url(#SVGID_00000031913275366986763460000010829596369605317014_);}
	.st20{fill:url(#SVGID_00000039856395879886369010000018189107395993876123_);}
	.st21{fill:url(#SVGID_00000030473401415343850950000004819675577569463451_);}
	.st22{fill:url(#SVGID_00000066502569758199698020000012139242128671988640_);}
	.st23{fill:url(#SVGID_00000137831208653226858170000001634375034668440967_);}
	.st24{fill:url(#SVGID_00000034780936968959163130000013161197638840498585_);}
	.st25{fill:url(#SVGID_00000078746442518455908470000012931669678806422438_);}
	.st26{fill:url(#SVGID_00000124130894484224584770000014438174988568161417_);}
	.st27{fill:url(#SVGID_00000077306449454120278160000000595432495940131250_);}
	.st28{fill:url(#SVGID_00000022519546577483370000000017557953395689872033_);}
	.st29{fill:url(#SVGID_00000054963964545666099730000000792740440088504217_);}
	.st30{enable-background:new    ;}
</style>
<g id="Layer_4">
	
		<radialGradient id="SVGID_1_" cx="114.1108" cy="210.8865" r="85.063" gradientTransform="matrix(1 0 0 -1.07 0 293.8)" gradientUnits="userSpaceOnUse">
		<stop  offset="0" style="stop-color:#231F20;stop-opacity:0.32"/>
		<stop  offset="1" style="stop-color:#231F20;stop-opacity:0.75"/>
	</radialGradient>
	<path class="st0" d="M218.5,52.9c-1.3,10.3-6,21.1-13,21.4s-17.2-9.7-21.2-19.6c-0.8,5.2-2.3,10.2-5,14.1h-0.4
		c-6.7,0-13.4-3.9-13.7-4l-0.3-0.2c-0.4-0.3-0.9-0.4-1.4-0.5c-0.1-2.6-0.2-5-0.3-7c-0.3-6.2-0.3-6.9-0.6-7.6c-0.4-1-2.1-3.9-4.9-3.9
		c-1,0-2.8,0.4-4,3.1c-1.7,3.8-5.7,15.2-5.9,15.7c-0.1,0.4-0.2,0.8-0.3,1.3c-1.3-0.1-3.2-0.1-3.4-0.2c-20.3-16.5-22-16.7-22.7-16.8
		h-0.3c-5.1,0-11.9,23.7-12.9,29.3c-0.1,0.7-0.3,1.3-0.4,2c-4.7,2.6-9.3,5.5-13.6,8.6c-6.9,5.2-19.3,8.7-25.1,4
		c-10.7-8.7-3.3-27.8,9.2-43.2s29-17.7,39.7-9c1.2,1,2.5,1.9,3.7,2.7c-1-3.3-2.3-7-3.3-10.5c22.2-5.4,22-8.5,21.8-10.5
		c-0.3-4.3-5.1-4.2-7.9-4.2c-0.7,0-1.5,0-2.1,0c-1.9-0.1-4.3-0.3-7-0.4H123c6.3-3.1,15.5-4.3,25-4.6c20.3-0.7,35.6,7.8,37,22.2
		c2.7-5.6,7.2-9.3,12.6-9.5c4.7-0.2,10.4,2.4,14.8,6.6c3.7,3.6,6.6,4.3,8,9.5C222,48.5,218.8,50.5,218.5,52.9z M194.4,34.4
		c-5.8,1.7-8.6,9.6-6.2,17.5s9,13,14.8,11.2s11-10.5,8.6-18.5S200.2,32.7,194.4,34.4z M130,20.2c-11.4-0.6-41.3-3-57.3-1.7
		C37,21.3,7.1,32.6,7.4,37.5S21,42.8,56.6,40s81.6-12.8,81.2-17.7C137.6,19.6,133.3,20.4,130,20.2z M99.4,113.3
		c8-9.9,13.4-21.7,15.8-34.2c1.4-7.6,5.6-19,7.6-21.1s16.5,11.7,16.5,11.7c1,0.8,4.4,1.1,5.2,0.1s-0.8-1.7-1.8-2.5
		c0,0-19.8-16.1-21.5-16.3s-8.6,16.5-10.6,27.4c-2.2,11.7-7.3,22.7-14.7,32c-0.8,1-5.2,5.6-4.2,6.4c0.4,0.4,5.4-2.5,6-2.5
		C98.3,114.1,99,113.8,99.4,113.3L99.4,113.3z M200.7,120.9c1.2-0.5-3.2-4.6-3.8-5.7c-2.4-5.4-8.8-20.6-9.4-25.1s1.4-13.1,2.2-16
		c0,0,1.2-2,0.7-3S179,71,179,71c-7.7,0-15-4.3-15.1-4.3c-1.1-0.7-0.3-0.4-0.9,0.7s0.1,4.1,1.2,4.8c0.3,0.2,5.8,3.6,14.8,3.6
		c0,0,6.1-1.4,5.5,0s-2.2,10.6-1.6,15c0.8,6,8.9,24.3,9.8,26.4c0.4,0.8,1.2,1.4,2.1,1.4C195.1,118.5,200.4,121,200.7,120.9
		L200.7,120.9z M185.2,124.1c1.1-0.7-1.8-4.4-2.5-5.5c-5-7.6-18.3-29-19.9-36.1c-2-8.8-2.1-31.2-2.6-32.3s-2.9-4.4-4.6-0.7
		S149.9,65,149.9,65c-0.4,1.2-1,5.6,0.2,6.1s2.6,0.8,3.1-0.4l2.9-8.1c0.4,7.3,1.1,16.1,2.2,21c2.1,9.4,19.8,36.5,20.5,37.6
		c0.4,0.7,1.2,1.1,2,1.1C182.3,122.8,183.7,123.4,185.2,124.1L185.2,124.1z M152,73.8c-0.9,0-1.8-0.2-2.6-0.6
		c-0.6-0.2-1.2-0.7-1.5-1.2c-1.8,0.4-3.7,0.6-5.6,0.7c-1.6,0.1-3.1-0.4-4.5-1.2l-0.2-0.2c-5-4.7-11.3-9.9-13.7-11
		c-2.1,4.1-3.8,8.5-5,12.9c3-1.8,5.8-4,8.2-6.5c5.7,6.7,16.3,9.3,27.7,9.9c-0.1-1.2-0.3-2.4-0.4-3.7C153.7,73.5,152.9,73.8,152,73.8
		z M164.3,76.7c1.1,0,2.3-0.2,3.4-0.4c-1.2-0.4-2.4-0.9-3.6-1.5C164.1,75.4,164.2,76,164.3,76.7L164.3,76.7z"/>
	<g>
		
			<linearGradient id="SVGID_00000021798696330867332400000009692746117014574779_" gradientUnits="userSpaceOnUse" x1="38.3394" y1="131.8905" x2="375.1001" y2="131.8905" gradientTransform="matrix(1 0 0 -1 0 262)">
			<stop  offset="9.000000e-02" style="stop-color:#5C5D60"/>
			<stop  offset="1" style="stop-color:#010000"/>
		</linearGradient>
		<path style="fill:url(#SVGID_00000021798696330867332400000009692746117014574779_);" d="M41.3,237.2c-1,0-2-0.5-2.5-1.4
			c-0.9-1.4-0.5-3.3,0.9-4.1L370.5,23.5c1.4-0.9,3.3-0.5,4.1,0.9s0.5,3.3-0.9,4.1L42.9,236.7C42.4,237.1,41.9,237.2,41.3,237.2z"/>
	</g>
	<g id="Fly_Brain_VNC_Leg">
		<path class="st2" d="M212.2,43.2c-1.1,7.1-4.9,12.6-9.3,12.6c-2.7,0-4.8-0.7-6.3-4c-0.9-2.1-2.3-9.5-2.3-12.3
			c0-2.3,2.1-5.8,3.6-7.6c2.7-3.2,3.4-3.7,6.4-3.1C208.3,29.4,213.1,37.2,212.2,43.2z"/>
		<path class="st2" d="M190.2,42.7c1.8,0.5-0.7,1.7-1.8,2s-9.6,2.2-10.2,3.6s-5.8,9.7-5.3,11.2s0,3.6-0.8,2.1s-0.5-4.4-1.4-5.9
			c-0.8-1.3-0.9-3.7-2.2-3s-1.8,2.7-4.3,3.4s-3.7,0.4-4.8,2.1s-3,5.1-3.5,4.5s-0.6-2,0.9-3.6s3-3.2,2.7-4.8s-0.6-2.6-2.4-1.7
			s-2.8,2.7-5,2.9s-1.4-1.1-3.3,0.8s-4.9,4.5-5,5.5s-2.5,1.1-1.4-0.8s5.1-4.4,5.1-6.2s-0.3-3.6-2.3-3.8s-6,1.2-5.6-0.1
			s5.1-2.2,7.7-1.9s10.5-1.1,14.6-2.2s7-0.6,9-0.7c4.3-0.4,8.5-1.1,12.7-2.2C186.6,43.3,189.3,42.5,190.2,42.7z"/>
		<path class="st2" d="M200.7,120.9c1.2-0.5-3.2-4.6-3.8-5.7c-2.4-5.4-8.8-20.6-9.4-25.1s1.4-13.1,2.2-16c0,0,1.2-2,0.7-3
			S179,71,179,71c-7.7,0-15-4.3-15.1-4.3c-1.1-0.7-0.3-0.4-0.9,0.7s0.1,4.1,1.2,4.8c0.3,0.2,5.8,3.6,14.8,3.6c0,0,6.1-1.4,5.5,0
			s-2.2,10.6-1.6,15c0.8,6,8.9,24.3,9.8,26.4c0.4,0.8,1.2,1.4,2.1,1.4C195.1,118.5,200.4,121,200.7,120.9z"/>
	</g>
	<g id="Mouse_Brain_">
		<g class="st3">
			<g class="st4">
				<polygon class="st5" points="347.4,228.9 346.9,228.9 347.4,228.9 				"/>
				<path class="st6" d="M347.5,230.2c-0.1-0.6-0.1-1.1-0.1-1.3h-0.5h-0.5c0,0.5,0,1,0.1,1.5c1.7,17-0.2,34.2-5.6,50.5l1.2-0.4
					C347.4,264.3,349.2,247.2,347.5,230.2z"/>
				<path class="st6" d="M354.9,230.8c-0.1-0.6-0.2-1.1-0.3-1.7H354h0.5H354h-0.5c0.1,0.7,0.2,1.3,0.4,2c3.1,14,3.3,28.7,1.9,43.2
					l1-0.6C358.2,259.2,357.9,244.7,354.9,230.8z"/>
				<path class="st6" d="M356.5,227.4c-0.2-0.5-0.3-1-0.4-1.5h-1c0.1,0.6,0.2,1.2,0.5,1.8c4.4,14.1,5.3,29.3,4.2,44.2l1-0.6
					C361.8,256.4,360.8,241.4,356.5,227.4z"/>
				<path class="st6" d="M365.4,223.6h-1c0.1,0.9,0.4,1.8,0.7,2.6c3.6,11.9,6.2,24,7.7,36.3l0.9-0.8c-1.6-12.1-4.1-24.1-7.7-35.8
					C365.7,224.8,365.4,223.8,365.4,223.6z"/>
				<path class="st6" d="M391.5,216.1c-0.5-1.5-0.8-1.8-1.2-1.8c-0.2,0-0.4,0.1-0.6,0.2c-0.6,0.9,0.8,9.1,5.4,22.7l0.7-1.1
					c-3.4-10-4.9-16.8-5.3-19.6L391.5,216.1z"/>
				<path class="st6" d="M378.5,222.6l-1,0.3c0.1,0.6,0.1,1.2,0.1,1.7c0.5,9.8,2,19.6,4.6,29.1l0.8-0.8c-2.4-9.2-3.9-18.7-4.4-28.3
					C378.7,223.9,378.6,223.3,378.5,222.6z"/>
				<path class="st6" d="M366.5,216.6H366h-0.5c0.2,1.1,0.6,2.2,1,3.2c4.4,12.7,8,25.7,10.8,38.8l0.8-0.8
					c-2.8-13-6.4-25.7-10.7-38.3C367,218,366.6,216.8,366.5,216.6z"/>
				<path class="st6" d="M385.2,218.2c0-0.8,0-1.5-0.2-2.3l-0.9,0.3c0.1,0.7,0.1,1.3,0.1,2c0.3,9.5,1.8,19,4.4,28.1l0.8-1
					C387,236.5,385.6,227.4,385.2,218.2z"/>
				<path class="st6" d="M382.4,222.3c0-0.6,0-1.2-0.1-1.8l-1,0.3c0,0.5,0.1,1,0.1,1.5c0.2,9.4,1.6,18.7,4.2,27.8
					c0.3-0.3,0.5-0.6,0.8-0.9C383.9,240.4,382.6,231.4,382.4,222.3z"/>
				<path class="st6" d="M375.1,217.8l-1,0.2c0,0.1,0.1,0.9,0.2,1.9c1,12.3,2.7,24.6,5.1,36.8l0.9-0.9c-2.3-11.9-3.9-23.9-4.9-36
					C375.2,218.5,375.1,218,375.1,217.8z"/>
				<path class="st6" d="M360.7,227.7c-0.2-1-0.5-1.8-0.5-2h-1c0.1,0.8,0.3,1.6,0.5,2.3c3.3,13.3,4.9,27,4.9,40.7l1-0.7
					C365.6,254.5,364,240.9,360.7,227.7z"/>
				<path class="st6" d="M391.3,168.9c-0.2,1.3-0.3,2.4-0.4,2.5l1,0.3c0.1-0.3,0.2-1,0.4-2.7c2.1-15,5-27.7,8.7-38l-0.6-1.2
					C396.5,140.4,393.4,153.4,391.3,168.9z"/>
				<path class="st6" d="M386.4,167.3c0.2,0.4,0.4,0.8,0.5,1.2l0,0l1,0.3c0.1-0.4-0.1-0.9-0.6-1.9c-5.8-11.7-3.7-28.1,6.1-48.8
					l-0.6-0.9c-5,10.4-8.1,19.8-9.2,28.1C381.8,158,385,164.5,386.4,167.3z"/>
				<path class="st6" d="M378.1,162.1c0.1,0.5,0.1,1.1,0.1,1.6l0.5,0.1l-0.5-0.1l0.5,0.1l0.5,0.1c0-0.6,0-1.3-0.1-1.9
					c-1.6-17.7,2-35.7,8-52.3l-0.7-0.9C380.3,125.7,376.5,144,378.1,162.1z"/>
				<path class="st6" d="M351.1,155.1l-0.9,0.1c0.1,1,0.3,1.4,0.7,1.5c0.1,0,0.1,0,0.2,0c0.2,0,0.3-0.1,0.5-0.2
					c1.7-2,3.3-34.4-12.6-80l-1.2-0.4c5.5,15.5,9.6,31.4,12,47.7C352.3,140.8,351.7,152.1,351.1,155.1z"/>
				<path class="st6" d="M358.6,154.4c-0.2,0.7-0.2,1.3-0.3,2l1-0.1c0-0.2,0.1-0.9,0.2-1.7c4-23.5,0.9-48.6-4.7-71l-1.2-0.6
					C359.4,105.5,362.7,130.8,358.6,154.4z"/>
				<path class="st6" d="M374.6,163.5c0.2,1.6,0.3,2.9,0.3,3.1l1,0.2c0-1.1-0.1-2.2-0.3-3.4c-2.9-25.7-2.9-47.7-1.2-66.5l-0.9-0.8
					C371.7,115.1,371.6,137.4,374.6,163.5z"/>
				<path class="st6" d="M365.1,154.3c-0.2,0.7-0.3,1.5-0.3,2.3l1-0.1c0.1-0.7,0.2-1.3,0.3-2c3.7-19.8,1.8-42.5-5.6-67.8
					c-0.4-0.3-0.8-0.5-1.3-0.8C366.8,111.5,368.8,134.4,365.1,154.3z"/>
				<path class="st6" d="M353.6,152.8c-0.2,0.6-0.2,1.2-0.3,1.8l1-0.1c0.1-0.5,0.1-1,0.3-1.5c4.9-24.2,0-50.7-7-73.1l-1.2-0.5
					C353.6,101.9,358.5,128.6,353.6,152.8z"/>
				<path class="st6" d="M368.4,163.6h1c0-0.1,0-0.9,0.1-1.9c1.4-22.6,1.7-45.3,0.8-68l-1-0.8c0.9,22.9,0.7,45.9-0.8,68.8
					C368.5,162.9,368.4,163.4,368.4,163.6z"/>
				<g id="Skin" class="st7">
					
						<linearGradient id="SVGID_00000167385503613044029000000017625572473103814059_" gradientUnits="userSpaceOnUse" x1="199.3614" y1="9.0817" x2="341.7513" y2="123.0517" gradientTransform="matrix(1 -6.000000e-02 -6.000000e-02 -1 23.15 267.41)">
						<stop  offset="8.000000e-02" style="stop-color:#231F20;stop-opacity:0"/>
						<stop  offset="0.25" style="stop-color:#231F20;stop-opacity:0.75"/>
					</linearGradient>
					<path style="fill:url(#SVGID_00000167385503613044029000000017625572473103814059_);" d="M171,165.7
						c-7.1,18.2,33.9,59.2,40.7,70.3c4.5-1.4,7.6-2.4,8.6-2.8c9.7-3.4,29.3-7.1,35.7-4.9c6.4,2.2,48.1,11.2,53.4,12.1
						s42.9-6.2,49.1-11.7s35.2-12.6,40.8-15.8s8.7-20.3,8-28.8s-12-13-16.1-17.4s-58.5-28.1-61.3-32.2s-24.3-13.8-32.4-18.4
						c-5.6-3.3-24.8-4.1-38.4-5.3L171,165.7z"/>
				</g>
				<g class="st3">
					
						<radialGradient id="SVGID_00000124868332561984464620000006371203609038864560_" cx="314.3255" cy="99.0517" r="17.29" gradientTransform="matrix(1 -6.000000e-02 -6.000000e-02 -1 23.15 267.41)" gradientUnits="userSpaceOnUse">
						<stop  offset="0" style="stop-color:#231F20;stop-opacity:0.32"/>
						<stop  offset="1" style="stop-color:#231F20;stop-opacity:0.75"/>
					</radialGradient>
					<path style="fill:url(#SVGID_00000124868332561984464620000006371203609038864560_);stroke:#9DA3AA;stroke-width:0.21;" d="
						M310.2,136.6c-1.2-0.7,23.6,9.8,26.3,12.3c3.9,3.5,10.8,11.4,13.3,13c5.3,3.5-7.1-0.5-7.6-0.7c-1.9-0.8-5.1-6.6-7.8-9
						s-7.6-5.7-12.1-6.2c-2.8-0.4-5.4-1.6-7.5-3.6C314.8,142.4,311.6,137.4,310.2,136.6z"/>
					<g>
						<defs>
							<path id="SVGID_00000034091995167478147670000016733013859807079576_" d="M310.2,138.5c0.6,2.5,5.5,5.8,9.6,10.1
								s8.7,3.9,13.4,5s14.1,0.6,11.3-3.5s-21.9-11.7-26.7-14.1s-12.8-7.5-11.3-4.5S309.9,137.1,310.2,138.5z"/>
						</defs>
						<clipPath id="SVGID_00000007415179829102772450000015989389580822416004_">
							<use xlink:href="#SVGID_00000034091995167478147670000016733013859807079576_"  style="overflow:visible;"/>
						</clipPath>
						<g style="clip-path:url(#SVGID_00000007415179829102772450000015989389580822416004_);">
							
								<image style="overflow:visible;enable-background:new    ;" width="108" height="77" xlink:href="51FEB167.png"  transform="matrix(0.24 0 0 0.24 313.19 136.28)">
							</image>
						</g>
					</g>
					<g>
						<defs>
							<path id="SVGID_00000105414546823691713880000016404189558450866306_" d="M329.2,204.2c-1.6-3.5-7.3-5-12.8-8.7
								s-9.4,0.3-14,2s-12.7,9.3-8.6,13.7s24.4,2.3,29.6,2.6s14.5,2.3,11.9-1.3S330.1,206.1,329.2,204.2z"/>
						</defs>
						<clipPath id="SVGID_00000010289483608760851270000002453370927813181583_">
							<use xlink:href="#SVGID_00000105414546823691713880000016404189558450866306_"  style="overflow:visible;"/>
						</clipPath>
						<g style="clip-path:url(#SVGID_00000010289483608760851270000002453370927813181583_);">
							
								<image style="overflow:visible;enable-background:new    ;" width="117" height="96" xlink:href="51FEB165.png"  transform="matrix(0.24 0 0 0.24 298.07 193.4)">
							</image>
						</g>
					</g>
					
						<radialGradient id="SVGID_00000181778577214955669990000015707871994369832855_" cx="289.2355" cy="48.6517" r="21.1" gradientTransform="matrix(1 -6.000000e-02 -6.000000e-02 -1 23.15 267.41)" gradientUnits="userSpaceOnUse">
						<stop  offset="0" style="stop-color:#231F20;stop-opacity:0.32"/>
						<stop  offset="1" style="stop-color:#231F20;stop-opacity:0.75"/>
					</radialGradient>
					<path style="fill:url(#SVGID_00000181778577214955669990000015707871994369832855_);stroke:#9DA3AA;stroke-width:0.21;" d="
						M284.9,211.6c3.7-11.4,19.9-12.4,25-11.9s23.8,3,26,1.7c-1.5-4.2-6.7-7.1-9.6-9.1s-21.6-2.5-22.9-2.1l-1.1-0.1l-0.2,0.1
						c-1,1.3-30.6,10.2-17.1,24.8L284.9,211.6z"/>
					
						<radialGradient id="SVGID_00000152949915768525660110000015451016626150712739_" cx="295.2055" cy="51.3317" r="62.88" gradientTransform="matrix(1 -6.000000e-02 -6.000000e-02 -1 23.15 267.41)" gradientUnits="userSpaceOnUse">
						<stop  offset="0" style="stop-color:#231F20;stop-opacity:0.32"/>
						<stop  offset="1" style="stop-color:#231F20;stop-opacity:0.75"/>
					</radialGradient>
					<path style="fill:url(#SVGID_00000152949915768525660110000015451016626150712739_);stroke:#9DA3AA;stroke-width:0.21;" d="
						M351.1,174.3c-0.9,1-3,9.2-1.6,9.7s-2.9,3.7-3.4,3.9s-0.3,4.4,0.5,5.6s-2.8,5.5-3.4,6.4s-5.1,2.5-5.1,2.5s-3.9-2.2-3.4,0.4
						s4.8,7.9,0.9,9s-12.9,6.5-19.3,6.4s-28.7-0.4-31.4-3.3c-13.5-14.6,16.2-23.5,17.1-24.8c0.5-0.6-1-1.1-1.1-2s1.5-0.5,0.9-1.5
						s-2.1,1-3,0.2c-1.3-1.1,1.3-4.9,0.1-4.4c-2.6,1-21.4,20.3-32.8,20.3c-8.3,0-13.2-2.5-18.4-4.2c-5.5-1.8-17-5.7-19.2-5.7
						c-1.4,0,7.5,10.4,7.5,10.4c1.8,2.6,41.8,16,49.2,17.6s31.6,3.6,39.4,1s18.9-10.6,25.3-12.1s10.8-2,12.1-3.8s9.1-3.3,13.3-2.9
						s20.7,4.2,22.9-1.4s1.7-6.2,0.2-11s-8.1-6.3-13-9.1s-27.4-7.6-30.9-9.9L351.1,174.3z"/>
					
						<radialGradient id="SVGID_00000111173250210399871780000015505220604536654474_" cx="310.1655" cy="80.8717" r="33.91" gradientTransform="matrix(1 -6.000000e-02 -6.000000e-02 -1 23.15 267.41)" gradientUnits="userSpaceOnUse">
						<stop  offset="0" style="stop-color:#231F20;stop-opacity:0.32"/>
						<stop  offset="1" style="stop-color:#231F20;stop-opacity:0.75"/>
					</radialGradient>
					<path style="fill:url(#SVGID_00000111173250210399871780000015505220604536654474_);stroke:#9DA3AA;stroke-width:0.21;" d="
						M316.7,143.2c3.7,2.6,18.5,12.3,22,15.8s15.1,4.7,18.6,6.2s2.9,0.6,2.9,2.1s-3.5,0.6-3.8,1.9s-2.4,2.8-2.4,2.8l-3.5,2.7
						c-0.9,1-3,9.2-1.6,9.7s-2.9,3.7-3.4,3.9s-0.3,4.4,0.5,5.6s-2.8,5.5-3.4,6.4s-5.1,2.5-5.1,2.5l-0.9-0.4
						c-1.5-4.2-7.5-8.2-10.5-10.1s-21.5-2.5-22.9-2.1l-1.1-0.1c0.5-0.6-1-1.1-1.1-2s1.5-0.5,0.9-1.5s-2.1,1-3.1,0.3
						c-1.3-1.1,1.1-6.1-0.2-5.6l0.7,0.7c0-1.2-0.5,2.2-1.4-2.8c-0.2-1.1,0.5-2,0.3-3.2c-0.2-2-1.4,0-1.6-2c-0.2-3,1.1-3.4,0.6-5.7
						c-0.4-1.5-1.3-1.1-1.8-3.3s0.5-4.4,0.3-5.1c-0.6-2.4-1.6-2.8-1.9-2.8l0.2-0.2c0.1,0.4,1.5-0.1,2.9-1.8c0.2-0.2,0.2-2.3,0.4-2.6
						c0.5-0.6,1.4,0.5,1.9-0.1c0.8-0.9,0.4-2,1.1-2.8c0.6-0.6,2.9-0.3,3.5-0.8c1.3-1.1,2.8-11.3,3.5-10.8c2.5,1.8,1.2-2.3-0.2-3.4
						L316.7,143.2z"/>
					
						<radialGradient id="SVGID_00000096031289665505630600000017987555588351887254_" cx="359.6055" cy="64.5917" r="19.44" gradientTransform="matrix(1 -6.000000e-02 -6.000000e-02 -1 23.15 267.41)" gradientUnits="userSpaceOnUse">
						<stop  offset="0" style="stop-color:#231F20;stop-opacity:0.32"/>
						<stop  offset="1" style="stop-color:#231F20;stop-opacity:0.75"/>
					</radialGradient>
					<path style="fill:url(#SVGID_00000096031289665505630600000017987555588351887254_);stroke:#9DA3AA;stroke-width:0.21;" d="
						M354.7,171.9c0.4-1,1-1.9,1.7-2.8c0.8-0.6,3.1,0.2,3.6-1.8c0.3-1.2,2.4,0.6,8.1,3.1c5,2.3,18.8,6.3,24.3,9.2s3.8,4.2,5.2,6.4
						s4.1,3.5,3.5,6.7s-2,3.8-2.1,3s0.5-4.8-1.9-6.8c-3-2.6-2.1-3-3.3-3.6c-12.1-5.8-21.5-8.3-22.8-8.5S354.7,171.9,354.7,171.9z"/>
					
						<radialGradient id="SVGID_00000008126659275016914830000004457278952057377437_" cx="219.5355" cy="98.0517" r="29.95" gradientTransform="matrix(1 -6.000000e-02 -6.000000e-02 -1 23.15 267.41)" gradientUnits="userSpaceOnUse">
						<stop  offset="0" style="stop-color:#231F20;stop-opacity:0.32"/>
						<stop  offset="1" style="stop-color:#231F20;stop-opacity:0.75"/>
					</radialGradient>
					<path style="fill:url(#SVGID_00000008126659275016914830000004457278952057377437_);stroke:#9DA3AA;stroke-width:0.21;" d="
						M247.6,119.8c-5.5,3.2-11.2,6-17.1,8.4c-3.7,1.4-3.7-0.1-4.3,6.6s0.1,9.9-1.8,11.1s-4.7,1.4-4.7,5.3s2.1,5.6,1.1,8.6
						s-5.5,8.5-4.9,15.6s11,14.4,12,18.2l0.4-0.4c-0.1-3.2,3.7-4.4,4.3-6.5c0.2-0.7,2.4,2,2.8,0.1c0.2-0.8-0.3-3.5,4.4-4.6
						c0.7-0.1,0.8-0.3,2.6-1.7c2.9-2.2,1.2-3.5,1.3-5c0.2-3.4,2.4-5.6,3.2-8.3c0.1-0.4-1.2-2.2-0.4-4.5c0.2-0.7,1.7-1.4,2.4-3.9
						s-1.6-3.7,0.2-5.4c0,0,2.3-5.7,4.5-5.5l-0.4-0.3c-1.2-1.8-1.8-3.9-1.8-6.1c0.2-1.9,3.2-0.2,2.8-2.2s-2.4-3.3-1.1-4.5
						s3.7-1.7,2.4-2.9c-1.3-1.6-2.2-3.4-2.8-5.3c-0.5-1.5-0.7-3.3-1.5-4.9c-2.3-4.6-2.2-2.2,0.2-2.9L247.6,119.8z"/>
					
						<radialGradient id="SVGID_00000150089179570122642370000000622906115017260930_" cx="264.7255" cy="114.5717" r="24.95" gradientTransform="matrix(1 -6.000000e-02 -6.000000e-02 -1 23.15 267.41)" gradientUnits="userSpaceOnUse">
						<stop  offset="0" style="stop-color:#231F20;stop-opacity:0.32"/>
						<stop  offset="1" style="stop-color:#231F20;stop-opacity:0.75"/>
					</radialGradient>
					<path style="fill:url(#SVGID_00000150089179570122642370000000622906115017260930_);stroke:#9DA3AA;stroke-width:0.21;" d="
						M253.1,148c-1.2-1.8-1.8-3.9-1.8-6.1c0.2-1.9,3.2-0.2,2.8-2.2s-2.4-3.3-1.1-4.5s3.7-1.7,2.4-2.9c-1.3-1.6-2.2-3.4-2.8-5.3
						c-0.5-1.5-0.6-3.3-1.5-4.9c-2.3-4.6-0.2-2.2,2.3-2.9s13.4,0,16.5,1.8s16.1,3.2,18.4,4.4s18.7,8.8,20,10s2.2,5.5-0.1,3.4
						c-0.6-0.5-2.3,9.6-3.7,10.6c-0.6,0.4-2.9-0.1-3.5,0.4c-0.9,0.7-0.5,1.9-1.4,2.7c-0.6,0.5-1.4-0.7-1.9-0.2
						c-0.2,0.2-0.5,2.3-0.7,2.5c-1.6,1.5-3,1.9-3.1,1.4C293.7,155.1,254,149.2,253.1,148z"/>
					
						<radialGradient id="SVGID_00000167375727273615887560000001333391778328278452_" cx="245.5255" cy="77.2217" r="32.2" gradientTransform="matrix(1 -6.000000e-02 -6.000000e-02 -1 23.15 267.41)" gradientUnits="userSpaceOnUse">
						<stop  offset="0" style="stop-color:#231F20;stop-opacity:0.32"/>
						<stop  offset="1" style="stop-color:#231F20;stop-opacity:0.75"/>
					</radialGradient>
					<path style="fill:url(#SVGID_00000167375727273615887560000001333391778328278452_);stroke:#9DA3AA;stroke-width:0.21;" d="
						M294,156c0.2,0,1.2,0.4,1.9,2.8c0.2,0.7-0.9,2.9-0.3,5.1s1.5,1.8,1.8,3.3c0.5,2.4-0.9,2.7-0.6,5.7c0.2,2,1.4,0.1,1.6,2
						c0.1,1.2-0.5,2.1-0.3,3.2c1,5,1.4,1.5,1.4,2.8c0,0.3-0.3,7-13.6,15c-7.4,4.5-11.9,6.6-19.7,7.6c-6.8,0.9-9.5-1.8-17.7-4
						c-9.8-2.6-20-4.6-20-6.4c-0.1-3.2,3.7-4.4,4.3-6.5c0.2-0.7,2.4,2,2.8,0.1c0.2-0.8-0.3-3.5,4.4-4.6c0.7-0.1,0.8-0.3,2.6-1.7
						c2.9-2.2,1.2-3.5,1.3-5c0.2-3.4,2.4-5.6,3.2-8.3c0.1-0.4-1.2-2.2-0.4-4.5c0.2-0.7,1.7-1.4,2.4-3.9s-1.6-3.7,0.2-5.4
						c0,0,2.3-5.7,4.5-5.5C256.1,148.3,292.2,156,294,156z"/>
				</g>
			</g>
		</g>
		<g id="Brain" class="st7">
			
				<linearGradient id="SVGID_00000005262763597288915800000009096066767071455874_" gradientUnits="userSpaceOnUse" x1="173.7455" y1="99.2695" x2="220.2945" y2="99.2695" gradientTransform="matrix(1 -6.000000e-02 -6.000000e-02 -1 23.15 267.41)">
				<stop  offset="7.000000e-02" style="stop-color:#231F20;stop-opacity:0"/>
				<stop  offset="1" style="stop-color:#231F20;stop-opacity:0.75"/>
			</linearGradient>
			<path style="fill:url(#SVGID_00000005262763597288915800000009096066767071455874_);" d="M190.2,156.2c14.3,2.9,34.2,7.6,35,9.6
				c1.9,5.1,6.1,0.6,6.1,0.6l5.1-18.9l-1.6-5.3c-3.8,0.1-7.6,0.5-11.4,1.3c-5.1,1-5.3,1.5-14.1,0.7L190.2,156.2z"/>
			
				<radialGradient id="SVGID_00000017512081532011448930000015959902746103590576_" cx="279.3718" cy="1480.486" r="11.6967" gradientTransform="matrix(0.9198 0.3923 0.3923 -0.9198 -513.3492 1419.875)" gradientUnits="userSpaceOnUse">
				<stop  offset="0" style="stop-color:#6D6E71"/>
				<stop  offset="1" style="stop-color:#231F20"/>
			</radialGradient>
			<path style="fill:url(#SVGID_00000017512081532011448930000015959902746103590576_);" d="M316.4,157.4l2.1,1.9c0,0,1.7-1.1,4.7,0
				s12.3,3.9,13.3,4.8c2.1,1.9,2.9,3.1,2.4,6.2s-3.6,7.1-4.6,7.5s-26.2-8.3-26.2-8.3L316.4,157.4z"/>
			
				<radialGradient id="SVGID_00000078020148973198998260000003277401060706719921_" cx="109.49" cy="1396.54" r="29.36" gradientTransform="matrix(1 0 0 -1 0 262)" gradientUnits="userSpaceOnUse">
				<stop  offset="0" style="stop-color:#6D6E71"/>
				<stop  offset="1" style="stop-color:#231F20"/>
			</radialGradient>
			<path style="fill:url(#SVGID_00000078020148973198998260000003277401060706719921_);" d="M226.8,163.1c0.6-2-3.7-5.3-0.2-13.1
				s4.2-6.2,4.3-8.3s1.1-7.6,4.8-10.5s18.4-3.4,20.5-2.6c2.2,0.7,8,1.9,9,3.9s2.9,47.8-2.6,51.2s-7.8,0.5-10.2,0.9
				c-1.4,0.2-2.8,0.6-4.1,1c0,0,0.5,1.4-0.1,4.4s-4.9,3.3-7.8,3.9s-6.1,0-8.1-4.6c-1-2.3-1-5.4,0.2-6.3s-4.1-2-4.9-7.9
				S226,166,226.8,163.1z"/>
			
				<radialGradient id="SVGID_00000153687189046358054000000012123309925720492170_" cx="198.4118" cy="1465.6063" r="8.55" gradientTransform="matrix(0.9198 0.3923 0.3923 -0.9198 -513.3492 1419.875)" gradientUnits="userSpaceOnUse">
				<stop  offset="0" style="stop-color:#808285"/>
				<stop  offset="1" style="stop-color:#231F20"/>
			</radialGradient>
			<path style="fill:url(#SVGID_00000153687189046358054000000012123309925720492170_);" d="M250.7,141.9c-0.9-1.2-2.6-1.7-4-1.1
				c-2.8,0.9-4.9,1-6.1,1.9s-4,7.1-3.7,8.8s1.4,6.6,4.3,7.9c1.9,0.7,4.1,0.8,6.1,0.2L250.7,141.9z"/>
			
				<radialGradient id="SVGID_00000141445133495176019360000007425088113100391858_" cx="245.527" cy="1273.8521" r="14.92" gradientTransform="matrix(0.94 0.33 0.33 -0.94 -400.43 1271.55)" gradientUnits="userSpaceOnUse">
				<stop  offset="0" style="stop-color:#808285"/>
				<stop  offset="1" style="stop-color:#231F20"/>
			</radialGradient>
			<path style="fill:url(#SVGID_00000141445133495176019360000007425088113100391858_);" d="M253.4,134.6c0,0.1-0.1,0.1-0.1,0.2
				c-0.7,0.6-3.2,1.3-4.2,2c-1.6,1.3-2.9,3-3.7,4.9c-0.7,1.8-0.9,3.7-0.7,5.6c0.2,1.7-0.8,4.1-2,5.9s-1.2,5.2-0.6,7s1.9,5.4,2.8,5.7
				s1.6,3,3.2,2.8s4.4-3.5,4.1-4.8s14.1-6.8,14.1-6.8l-1-17.7L253.4,134.6z"/>
			
				<radialGradient id="SVGID_00000123442527910615579220000015692268458366506920_" cx="250.527" cy="1275.552" r="14.92" gradientTransform="matrix(0.94 0.33 0.33 -0.94 -400.43 1271.55)" gradientUnits="userSpaceOnUse">
				<stop  offset="0" style="stop-color:#808285"/>
				<stop  offset="1" style="stop-color:#231F20"/>
			</radialGradient>
			<path style="fill:url(#SVGID_00000123442527910615579220000015692268458366506920_);" d="M258.6,134.6c0,0.1-0.1,0.2-0.1,0.2
				c-0.7,0.6-3.2,1.3-4.2,2c-1.6,1.3-2.9,3-3.7,4.9c-0.7,1.8-0.9,3.7-0.7,5.6c0.2,1.7-0.8,4.1-2.1,5.9s-1.2,5.2-0.6,7
				s1.9,5.3,2.8,5.7s1.6,3,3.2,2.8s4.4-3.5,4-4.8s14.1-6.8,14.1-6.8l-1.1-17.7L258.6,134.6z"/>
			
				<radialGradient id="SVGID_00000077309915598805958020000008468130374078380210_" cx="117.23" cy="1418.42" r="5.84" gradientTransform="matrix(1 0 0 -1 0 262)" gradientUnits="userSpaceOnUse">
				<stop  offset="0" style="stop-color:#808285"/>
				<stop  offset="1" style="stop-color:#231F20"/>
			</radialGradient>
			<path style="fill:url(#SVGID_00000077309915598805958020000008468130374078380210_);" d="M259.4,138c-1.1,1.1-2,2.4-2.6,3.8
				c-0.5,1.6-2.2,4.5-0.9,4.8c0.6,0.1,12.9,1.2,12.9-0.2s-1.4-6.8-3.5-6.9C263.3,139.3,261.3,138.7,259.4,138z"/>
			
				<radialGradient id="SVGID_00000114042718911821871880000008106870700410560910_" cx="118.68" cy="1410.86" r="6.58" gradientTransform="matrix(1 0 0 -1 0 262)" gradientUnits="userSpaceOnUse">
				<stop  offset="0" style="stop-color:#808285"/>
				<stop  offset="1" style="stop-color:#231F20"/>
			</radialGradient>
			<path style="fill:url(#SVGID_00000114042718911821871880000008106870700410560910_);" d="M255.5,155.8c-1.2-1.6-0.7-3.9-0.9-5.2
				s1.1-3.6,1.1-3.6s10.2-0.3,11.8,0.6s0.2,6.5,0.2,6.5L255.5,155.8z"/>
			
				<radialGradient id="SVGID_00000116950666515003470590000001956371910793554608_" cx="140.97" cy="1428.63" r="26.66" gradientTransform="matrix(1 0 0 -1 0 262)" gradientUnits="userSpaceOnUse">
				<stop  offset="0" style="stop-color:#6D6E71"/>
				<stop  offset="1" style="stop-color:#231F20"/>
			</radialGradient>
			<path style="fill:url(#SVGID_00000116950666515003470590000001956371910793554608_);" d="M259.5,126.2c-2.6,1.9-3.8,4.1-3.6,5.7
				s1.5,4.6,2.5,6.7c1.4,2.4,3.1,4.7,4.9,6.9c0.8,1,3.9,2.5,5.7,3.5s37,16.6,37,16.6s8.5,0.6,9.9-0.7s3.5-2.7,4.1-4.3
				c0.8-2.2,1.3-5.1-0.4-6.9s-5.5-7.6-7-8.2s-2.5-2.9-5.2-4.3s-8.1-4.1-10.2-5s-2.9-2.8-6-4.6s-7.8-4.5-10.8-4.8s-7.4-3.4-12.4-2.7
				S260.3,125.5,259.5,126.2z"/>
			
				<radialGradient id="SVGID_00000031205101338982861630000006561052896560315273_" cx="185.25" cy="1408.09" r="14.49" gradientTransform="matrix(1 0 0 -1 0 262)" gradientUnits="userSpaceOnUse">
				<stop  offset="0" style="stop-color:#6D6E71"/>
				<stop  offset="1" style="stop-color:#231F20"/>
			</radialGradient>
			<path style="fill:url(#SVGID_00000031205101338982861630000006561052896560315273_);" d="M313.9,170.8c0,0,7.6-3.1,9.9-2.5
				s10.2,2.6,11.6,5.1s2.6,3.6,2.7,6.2s0.1,4.5-3.3,6.5c-2.6,1.6-3,2-6.8,2.6c-3.3,0.4-6.7,0.1-9.9-0.8c-2.8-1-6.1-3.1-9.7-2.2
				c-2.2,0.5-4.5,0.5-6.7-0.2L313.9,170.8z"/>
			
				<radialGradient id="SVGID_00000085944811085039565870000017414434293401431695_" cx="145.55" cy="1394.41" r="30.62" gradientTransform="matrix(1 0 0 -1 0 262)" gradientUnits="userSpaceOnUse">
				<stop  offset="0" style="stop-color:#6D6E71"/>
				<stop  offset="1" style="stop-color:#231F20"/>
			</radialGradient>
			<path style="fill:url(#SVGID_00000085944811085039565870000017414434293401431695_);" d="M274,148.1c-1.8,0.4-9.4-1-13,2.2
				s-9.6,7.2-11.1,12.3s-1.2,5.9-2.5,8s-3.6,6.1-2.9,9.5s0.7,11.7,5.1,14.2s10.3,6.1,22.6,7.8s14.3-1.1,15.5-1.7
				c1.8-1,3.3-2.5,5.4-4.1s3.6-3.6,8.6-7.8s6.1-3.9,9.7-7s3.8-4.1,4.8-6.2s1.5-6.1,0.7-7.6s0.1-3.1-3.7-4.3s-5.9-4.4-8.2-5.4
				s-8.9-4.7-13.4-6.1S277.4,147.3,274,148.1z"/>
		</g>
	</g>
	<g id="Somatosensory_Cortex">
		<g id="Visual_Cortex">
			<g class="st30">
				<path class="st6" d="M136,209.7c1,0.6,2.4,1.1,3.9,1.1c2.2,0,3.5-1.2,3.5-2.9c0-1.6-0.9-2.5-3.1-3.3c-2.7-1-4.4-2.4-4.4-4.7
					c0-2.6,2.2-4.5,5.4-4.5c1.7,0,3,0.4,3.7,0.8l-0.6,1.8c-0.5-0.3-1.7-0.8-3.2-0.8c-2.3,0-3.1,1.4-3.1,2.5c0,1.6,1,2.3,3.3,3.2
					c2.8,1.1,4.3,2.5,4.3,4.9c0,2.6-1.9,4.8-5.9,4.8c-1.6,0-3.4-0.5-4.3-1.1L136,209.7z"/>
			</g>
			<g class="st30">
				<path class="st6" d="M159.5,206.2c0,4.4-3.1,6.4-6,6.4c-3.2,0-5.8-2.4-5.8-6.2c0-4,2.6-6.4,6-6.4
					C157.1,200,159.5,202.5,159.5,206.2z M149.9,206.3c0,2.6,1.5,4.6,3.6,4.6c2.1,0,3.6-2,3.6-4.7c0-2-1-4.6-3.6-4.6
					C151.1,201.7,149.9,204,149.9,206.3z"/>
				<path class="st6" d="M162.2,203.5c0-1.2,0-2.3-0.1-3.2h1.9l0.1,1.9h0.1c0.7-1.1,1.8-2.2,3.8-2.2c1.6,0,2.9,1,3.4,2.4h0
					c0.4-0.7,0.8-1.2,1.3-1.6c0.7-0.5,1.5-0.8,2.7-0.8c1.6,0,3.9,1,3.9,5.2v7.1h-2.1v-6.8c0-2.3-0.8-3.7-2.6-3.7
					c-1.2,0-2.2,0.9-2.6,2c-0.1,0.3-0.2,0.7-0.2,1.1v7.4h-2.1v-7.2c0-1.9-0.8-3.3-2.5-3.3c-1.4,0-2.4,1.1-2.7,2.2
					c-0.1,0.3-0.2,0.7-0.2,1.1v7.2h-2.1V203.5z"/>
			</g>
			<g class="st30">
				<path class="st6" d="M189.5,212.3l-0.2-1.5h-0.1c-0.7,0.9-2,1.8-3.7,1.8c-2.4,0-3.7-1.7-3.7-3.4c0-2.9,2.6-4.5,7.2-4.5v-0.2
					c0-1-0.3-2.8-2.7-2.8c-1.1,0-2.3,0.3-3.1,0.9l-0.5-1.4c1-0.6,2.4-1.1,3.9-1.1c3.7,0,4.6,2.5,4.6,4.9v4.5c0,1,0,2.1,0.2,2.9
					H189.5z M189.2,206.2c-2.4,0-5.1,0.4-5.1,2.7c0,1.4,0.9,2.1,2.1,2.1c1.6,0,2.6-1,2.9-2c0.1-0.2,0.1-0.5,0.1-0.7V206.2z"/>
			</g>
			<g class="st30">
				<path class="st6" d="M197.4,196.8v3.4h3.1v1.7h-3.1v6.5c0,1.5,0.4,2.3,1.6,2.3c0.6,0,1-0.1,1.3-0.1l0.1,1.6
					c-0.4,0.2-1.1,0.3-1.9,0.3c-1,0-1.8-0.3-2.4-0.9c-0.6-0.6-0.8-1.7-0.8-3.1V202h-1.9v-1.7h1.9v-2.9L197.4,196.8z"/>
			</g>
			<g class="st30">
				<path class="st6" d="M213.7,206.2c0,4.4-3.1,6.4-6,6.4c-3.2,0-5.8-2.4-5.8-6.2c0-4,2.6-6.4,6-6.4
					C211.3,200,213.7,202.5,213.7,206.2z M204.1,206.3c0,2.6,1.5,4.6,3.6,4.6c2.1,0,3.6-2,3.6-4.7c0-2-1-4.6-3.6-4.6
					C205.2,201.7,204.1,204,204.1,206.3z"/>
				<path class="st6" d="M216.1,210.1c0.6,0.4,1.8,0.9,2.9,0.9c1.6,0,2.3-0.8,2.3-1.8c0-1-0.6-1.6-2.2-2.2c-2.2-0.8-3.2-2-3.2-3.4
					c0-1.9,1.6-3.5,4.1-3.5c1.2,0,2.3,0.3,3,0.7l-0.5,1.6c-0.5-0.3-1.3-0.7-2.5-0.7c-1.3,0-2,0.7-2,1.6c0,1,0.7,1.4,2.3,2
					c2.1,0.8,3.1,1.8,3.1,3.6c0,2.1-1.6,3.6-4.5,3.6c-1.3,0-2.5-0.3-3.4-0.8L216.1,210.1z"/>
				<path class="st6" d="M227.4,206.7c0,3,1.9,4.2,4.1,4.2c1.6,0,2.5-0.3,3.3-0.6l0.4,1.6c-0.8,0.3-2.1,0.7-4,0.7
					c-3.7,0-5.9-2.4-5.9-6s2.1-6.5,5.6-6.5c3.9,0,5,3.4,5,5.7c0,0.4,0,0.8-0.1,1H227.4z M233.8,205.1c0-1.4-0.6-3.5-3-3.5
					c-2.2,0-3.2,2-3.3,3.5H233.8z"/>
				<path class="st6" d="M238.6,203.5c0-1.2,0-2.3-0.1-3.2h1.9l0.1,2h0c0.6-1.1,2-2.3,4-2.3c1.7,0,4.2,1,4.2,5.1v7.2h-2.2v-6.9
					c0-1.9-0.7-3.5-2.8-3.5c-1.4,0-2.6,1-2.9,2.2c-0.1,0.3-0.1,0.6-0.1,1v7.2h-2.2V203.5z"/>
				<path class="st6" d="M252.1,210.1c0.6,0.4,1.8,0.9,2.9,0.9c1.6,0,2.3-0.8,2.3-1.8c0-1-0.6-1.6-2.2-2.2c-2.2-0.8-3.2-2-3.2-3.4
					c0-1.9,1.6-3.5,4.1-3.5c1.2,0,2.3,0.3,3,0.7l-0.5,1.6c-0.5-0.3-1.3-0.7-2.5-0.7c-1.3,0-2,0.7-2,1.6c0,1,0.7,1.4,2.3,2
					c2.1,0.8,3.1,1.8,3.1,3.6c0,2.1-1.6,3.6-4.5,3.6c-1.3,0-2.5-0.3-3.4-0.8L252.1,210.1z"/>
				<path class="st6" d="M273.1,206.2c0,4.4-3.1,6.4-6,6.4c-3.2,0-5.8-2.4-5.8-6.2c0-4,2.6-6.4,6-6.4
					C270.7,200,273.1,202.5,273.1,206.2z M263.5,206.3c0,2.6,1.5,4.6,3.6,4.6c2.1,0,3.6-2,3.6-4.7c0-2-1-4.6-3.6-4.6
					C264.7,201.7,263.5,204,263.5,206.3z"/>
			</g>
			<g class="st30">
				<path class="st6" d="M275.8,204c0-1.4,0-2.6-0.1-3.7h1.9l0.1,2.4h0.1c0.5-1.6,1.9-2.6,3.3-2.6c0.2,0,0.4,0,0.6,0.1v2.1
					c-0.2,0-0.4-0.1-0.7-0.1c-1.5,0-2.6,1.2-2.9,2.8c0,0.3-0.1,0.6-0.1,1v6.4h-2.2V204z"/>
			</g>
			<g class="st30">
				<path class="st6" d="M285.3,200.3l2.6,7.1c0.3,0.8,0.6,1.7,0.8,2.5h0c0.2-0.7,0.5-1.6,0.8-2.5l2.4-7h2.3l-3.3,8.6
					c-1.6,4.1-2.6,6.2-4.1,7.5c-1.1,0.9-2.1,1.3-2.7,1.4l-0.5-1.8c0.5-0.2,1.3-0.5,1.9-1.1c0.6-0.5,1.3-1.3,1.8-2.4
					c0.1-0.2,0.2-0.4,0.2-0.5s0-0.3-0.1-0.6l-4.4-11.1H285.3z"/>
			</g>
			<g class="st30">
			</g>
			<g class="st30">
				<path class="st6" d="M190,236.6c-0.8,0.4-2.4,0.8-4.4,0.8c-4.7,0-8.3-3-8.3-8.5c0-5.2,3.5-8.8,8.7-8.8c2.1,0,3.4,0.4,4,0.7
					l-0.5,1.8c-0.8-0.4-2-0.7-3.4-0.7c-3.9,0-6.5,2.5-6.5,6.9c0,4.1,2.4,6.7,6.4,6.7c1.3,0,2.7-0.3,3.5-0.7L190,236.6z"/>
			</g>
			<g class="st30">
				<path class="st6" d="M203.2,231c0,4.4-3.1,6.4-6,6.4c-3.2,0-5.8-2.4-5.8-6.2c0-4,2.6-6.4,6-6.4
					C200.9,224.8,203.2,227.3,203.2,231z M193.7,231.1c0,2.6,1.5,4.6,3.6,4.6c2.1,0,3.6-2,3.6-4.7c0-2-1-4.6-3.6-4.6
					C194.8,226.5,193.7,228.9,193.7,231.1z"/>
			</g>
			<g class="st30">
				<path class="st6" d="M206,228.9c0-1.4,0-2.6-0.1-3.7h1.9l0.1,2.4h0.1c0.5-1.6,1.9-2.6,3.3-2.6c0.2,0,0.4,0,0.6,0.1v2.1
					c-0.2,0-0.4-0.1-0.7-0.1c-1.5,0-2.6,1.2-2.9,2.8c0,0.3-0.1,0.6-0.1,1v6.4H206V228.9z"/>
			</g>
			<g class="st30">
				<path class="st6" d="M217.3,221.7v3.4h3.1v1.7h-3.1v6.5c0,1.5,0.4,2.3,1.6,2.3c0.6,0,1-0.1,1.3-0.1l0.1,1.6
					c-0.4,0.2-1.1,0.3-1.9,0.3c-1,0-1.8-0.3-2.4-0.9c-0.6-0.6-0.8-1.7-0.8-3.1v-6.5h-1.9v-1.7h1.9v-2.9L217.3,221.7z"/>
			</g>
			<g class="st30">
				<path class="st6" d="M224,231.5c0,3,1.9,4.2,4.1,4.2c1.6,0,2.5-0.3,3.3-0.6l0.4,1.6c-0.8,0.3-2.1,0.7-4,0.7
					c-3.7,0-5.9-2.4-5.9-6s2.1-6.5,5.6-6.5c3.9,0,5,3.4,5,5.7c0,0.4,0,0.8-0.1,1H224z M230.4,229.9c0-1.4-0.6-3.5-3-3.5
					c-2.2,0-3.2,2-3.3,3.5H230.4z"/>
			</g>
			<g class="st30">
				<path class="st6" d="M236.1,225.1l1.7,2.6c0.4,0.7,0.8,1.3,1.2,2h0.1c0.4-0.7,0.8-1.3,1.2-2l1.7-2.6h2.4l-4.1,5.8l4.2,6.2H242
					l-1.8-2.7c-0.5-0.7-0.9-1.4-1.3-2.1h0c-0.4,0.7-0.8,1.4-1.3,2.1l-1.7,2.7h-2.4l4.3-6.1l-4.1-5.9H236.1z"/>
			</g>
		</g>
		<g>
			<path class="st2" d="M271,168.1c3.8,0,6.5,0.5,10.3,5c2.6,3.2,4.3,6.9,5,10.9c0.9,3.8-1.9,8.3-5.4,8.4s-7-0.5-10.1-2.8
				c-2.8-2-9.5-7.1-10-11.6c-0.3-2.8,0.9-5.5,3.1-7.3C265.8,169,268.4,168,271,168.1z"/>
		</g>
	</g>
	<g id="Visual_Cortex-2">
		<g class="st30">
			<path class="st6" d="M20.8,109.6c0.9-0.2,2.4-0.3,3.9-0.3c2.2,0,3.5,0.4,4.6,1.2c0.9,0.6,1.4,1.6,1.4,3c0,1.6-1.1,3-2.8,3.7v0
				c1.6,0.4,3.4,1.7,3.4,4.2c0,1.4-0.6,2.5-1.4,3.3c-1.2,1.1-3,1.6-5.8,1.6c-1.5,0-2.6-0.1-3.3-0.2V109.6z M23,116.4h2
				c2.3,0,3.6-1.2,3.6-2.8c0-2-1.5-2.7-3.7-2.7c-1,0-1.6,0.1-1.9,0.1V116.4z M23,124.5c0.4,0.1,1,0.1,1.8,0.1c2.2,0,4.3-0.8,4.3-3.2
				c0-2.3-2-3.2-4.3-3.2H23V124.5z"/>
		</g>
		<g class="st30">
			<path class="st6" d="M34.2,117.8c0-1.4,0-2.6-0.1-3.7H36l0.1,2.4h0.1c0.5-1.6,1.9-2.6,3.3-2.6c0.2,0,0.4,0,0.6,0.1v2.1
				c-0.2,0-0.4-0.1-0.7-0.1c-1.5,0-2.6,1.2-2.9,2.8c0,0.3-0.1,0.6-0.1,1v6.4h-2.2V117.8z"/>
		</g>
		<g class="st30">
			<path class="st6" d="M48.8,126.1l-0.2-1.5h-0.1c-0.7,0.9-2,1.8-3.7,1.8c-2.4,0-3.7-1.7-3.7-3.4c0-2.9,2.6-4.5,7.2-4.5v-0.2
				c0-1-0.3-2.8-2.7-2.8c-1.1,0-2.3,0.3-3.1,0.9l-0.5-1.4c1-0.6,2.4-1.1,3.9-1.1c3.7,0,4.6,2.5,4.6,4.9v4.5c0,1,0,2.1,0.2,2.9H48.8z
				 M48.5,120c-2.4,0-5.1,0.4-5.1,2.7c0,1.4,0.9,2.1,2.1,2.1c1.6,0,2.6-1,2.9-2c0.1-0.2,0.1-0.5,0.1-0.7V120z"/>
			<path class="st6" d="M56.5,110.7c0,0.7-0.5,1.3-1.4,1.3c-0.8,0-1.3-0.6-1.3-1.3c0-0.8,0.6-1.4,1.4-1.4
				C56,109.4,56.5,109.9,56.5,110.7z M54.1,126.1v-12h2.2v12H54.1z"/>
			<path class="st6" d="M59.9,117.3c0-1.2,0-2.3-0.1-3.2h1.9l0.1,2h0c0.6-1.1,2-2.3,4-2.3c1.7,0,4.2,1,4.2,5.1v7.2h-2.2v-6.9
				c0-1.9-0.7-3.5-2.8-3.5c-1.4,0-2.6,1-2.9,2.2c-0.1,0.3-0.1,0.6-0.1,1v7.2h-2.2V117.3z"/>
			<path class="st6" d="M72.2,129.1c0.5-1.5,1.2-4.1,1.5-5.9l2.4-0.2c-0.6,2.1-1.7,4.9-2.4,6L72.2,129.1z"/>
		</g>
		<g class="st30">
			<path class="st6" d="M32.9,150.9l-5.5-16.7h2.3l2.6,8.2c0.7,2.3,1.3,4.3,1.8,6.2h0c0.5-1.9,1.2-4,1.9-6.2l2.8-8.3h2.3l-6,16.7
				H32.9z"/>
			<path class="st6" d="M43,150.9v-16.7h2.4l5.4,8.5c1.2,2,2.2,3.7,3,5.4l0,0c-0.2-2.2-0.2-4.3-0.2-6.9v-7h2v16.7h-2.2l-5.3-8.5
				c-1.2-1.9-2.3-3.8-3.1-5.6l-0.1,0c0.1,2.1,0.2,4.1,0.2,6.9v7.1H43z"/>
			<path class="st6" d="M71,150.4c-0.8,0.4-2.4,0.8-4.4,0.8c-4.7,0-8.3-3-8.3-8.5c0-5.2,3.5-8.8,8.7-8.8c2.1,0,3.4,0.4,4,0.7
				l-0.5,1.8c-0.8-0.4-2-0.7-3.4-0.7c-3.9,0-6.5,2.5-6.5,6.9c0,4.1,2.4,6.7,6.4,6.7c1.3,0,2.7-0.3,3.5-0.7L71,150.4z"/>
			<path class="st6" d="M72.2,154c0.5-1.5,1.2-4.1,1.5-5.9l2.4-0.2c-0.6,2.1-1.7,4.9-2.4,6L72.2,154z"/>
		</g>
		<g class="st30">
		</g>
		<g class="st30">
			<path class="st6" d="M41.2,159h2.2v14.9h7.1v1.8h-9.3V159z"/>
		</g>
		<g class="st30">
			<path class="st6" d="M53.7,170.1c0,3,1.9,4.2,4.1,4.2c1.6,0,2.5-0.3,3.3-0.6l0.4,1.6c-0.8,0.3-2.1,0.7-4,0.7
				c-3.7,0-5.9-2.4-5.9-6s2.1-6.5,5.6-6.5c3.9,0,5,3.4,5,5.7c0,0.4,0,0.8-0.1,1H53.7z M60.1,168.6c0-1.4-0.6-3.5-3-3.5
				c-2.2,0-3.2,2-3.3,3.5H60.1z"/>
			<path class="st6" d="M75.3,163.7c0,0.9-0.1,1.8-0.1,3.3v7c0,2.8-0.5,4.4-1.7,5.5c-1.2,1.1-2.9,1.4-4.4,1.4c-1.4,0-3-0.3-4-1
				l0.5-1.7c0.8,0.5,2,0.9,3.5,0.9c2.2,0,3.9-1.2,3.9-4.2v-1.3h0c-0.7,1.1-2,2-3.8,2c-3,0-5.1-2.5-5.1-5.9c0-4.1,2.7-6.4,5.4-6.4
				c2.1,0,3.2,1.1,3.7,2.1h0l0.1-1.8H75.3z M73,168.5c0-0.4,0-0.7-0.1-1c-0.4-1.3-1.5-2.3-3-2.3c-2.1,0-3.6,1.8-3.6,4.5
				c0,2.4,1.2,4.3,3.5,4.3c1.3,0,2.6-0.8,3-2.2c0.1-0.4,0.2-0.8,0.2-1.2V168.5z"/>
		</g>
	</g>
</g>
</svg>
