<svg id="Layer_4" data-name="Layer 4" xmlns="http://www.w3.org/2000/svg" xmlns:xlink="http://www.w3.org/1999/xlink" viewBox="0 0 413.45 260.22"><defs><style>.cls-1{opacity:0.15;}.cls-2{fill:url(#radial-gradient);}.cls-3{fill:url(#radial-gradient-2);}.cls-4{fill:url(#radial-gradient-3);}.cls-5{fill:url(#radial-gradient-4);}.cls-6{fill:url(#radial-gradient-5);}.cls-7{fill:url(#radial-gradient-6);}.cls-8{opacity:0.5;fill:url(#linear-gradient);}.cls-9{opacity:0.35;fill:url(#radial-gradient-7);}.cls-10{fill:url(#radial-gradient-8);}.cls-11{fill:url(#radial-gradient-9);}.cls-12{fill:#231f20;}</style><radialGradient id="radial-gradient" cx="170.33" cy="224.3" r="42.68" gradientTransform="matrix(-1, 0, 0, 1.07, 414.8, -16.69)" gradientUnits="userSpaceOnUse"><stop offset="0" stop-color="#231f20" stop-opacity="0.32"/><stop offset="1" stop-color="#231f20" stop-opacity="0.75"/></radialGradient><radialGradient id="radial-gradient-2" cx="188.07" cy="205.31" r="42.68" gradientTransform="matrix(-1, 0, 0, 1.07, 414.8, -15.27)" xlink:href="#radial-gradient"/><radialGradient id="radial-gradient-3" cx="188.07" cy="205.31" r="42.67" gradientTransform="matrix(-1, 0, 0, 1.07, 414.8, -15.27)" xlink:href="#radial-gradient"/><radialGradient id="radial-gradient-4" cx="219.06" cy="121.29" r="80.45" gradientTransform="matrix(-1, 0, 0, 1.07, 414.8, -9.02)" xlink:href="#radial-gradient"/><radialGradient id="radial-gradient-5" cx="362.05" cy="51.03" r="18.87" gradientTransform="matrix(1, 0, 0, 1, 0, 0)" xlink:href="#radial-gradient"/><radialGradient id="radial-gradient-6" cx="198.57" cy="125.88" r="144.45" gradientTransform="translate(0 -9.36) scale(1 1.07)" xlink:href="#radial-gradient"/><linearGradient id="linear-gradient" x1="272.47" y1="40.7" x2="358.39" y2="40.7" gradientTransform="translate(5.13 -24.11) rotate(4.48)" gradientUnits="userSpaceOnUse"><stop offset="0.04" stop-color="#231f20" stop-opacity="0"/><stop offset="0.22" stop-color="#231f20" stop-opacity="0.32"/><stop offset="1" stop-color="#231f20" stop-opacity="0.75"/></linearGradient><radialGradient id="radial-gradient-7" cx="292.33" cy="34.18" r="14.35" gradientTransform="translate(5.13 -24.11) rotate(4.48)" xlink:href="#radial-gradient"/><radialGradient id="radial-gradient-8" cx="315.78" cy="15.38" r="4.27" gradientTransform="translate(0.93 -8.18) rotate(1.51)" gradientUnits="userSpaceOnUse"><stop offset="0" stop-color="#ed1c24"/><stop offset="1" stop-color="#ac1015"/></radialGradient><radialGradient id="radial-gradient-9" cx="319.29" cy="43.18" r="3.63" gradientTransform="translate(122.11 290.22) rotate(-61.88)" xlink:href="#radial-gradient-8"/></defs><g class="cls-1"><g id="Finch"><path class="cls-2" d="M220.93,204.23c2.63-.59,7.8-1.88,14.36-3.79,4.92,1.54,10.26,3.1,14.89,4.15,12.71,2.89,25,3.46,30.33,7.22s5.34,8.67,6.5,10.4,5.06,3.61,6.79,8.09,3.47,14,3.47,14-13.73-18.06-22.1-21.09-19.07-2.6-26.15,3.61-16.46,13.87-12.42,17.48a32.48,32.48,0,0,1,6.65,9.24s-12.86-4.19-12.86-13,6.5-19.35,8-21.23-.87-3.9-6.07-4-21.81,2.31-29.32,0l-2.85-.92a11.84,11.84,0,0,0,1.77-.6C208.15,210.94,211.18,206.39,220.93,204.23Z"/><path class="cls-3" d="M218.86,225.32a32.48,32.48,0,0,1,6.65,9.24s-12.86-4.19-12.86-13a21.9,21.9,0,0,1,.44-4.21c2.75,0,5.63-.18,8.31-.36C218.35,220.36,216.72,223.4,218.86,225.32Z"/><path class="cls-4" d="M250.42,203.53c-3.86-.88-8.62-2.2-14.14-3.92,7.18-2.13,15.55-4.89,24-8.15a13.44,13.44,0,0,1,2.51,1.36c5.35,3.75,5.35,8.66,6.5,10.4.83,1.24,3.06,2.56,4.9,4.85-3.25-.85-7.09-1.49-11.24-2.19S254.72,204.51,250.42,203.53Z"/><path class="cls-5" d="M289.39,95.47c1.53,7.84.22,25.56-9.53,34S246.5,149,242.16,149s-24,7.8-32.28,8.67-40.51,14.3-60.66,16.68-48.1,15-47.66,9.33h0A5.21,5.21,0,0,0,102,183c2.16-4.33,6.93-8.88,10.18-10s17.77-14.3,23-19.72,15.38-15.6,22.31-21,6.46-7.11,18.25-15.71c12.77-9.31,13.1-13.34,29.78-28.29,12-10.72,21.18-16.69,27.57-21.72,1.81-1.43,10.41-3.54,23.63-1.43C268.52,67,286.58,81,289.39,95.47Z"/></g><path class="cls-6" d="M360.7,32.61c1.83-.13,7.67,6,9.79,9.37,2.32,3.7,4.22,8.91,5.79,11.31a40.76,40.76,0,0,1,4,10.15c.72,3,1.14,5.4,1.14,5.4s-4.45.4-5,.57-10.62-.74-14.95-.71a26,26,0,0,1-10-2.07c-1.82-.8-2-.54-4-.56s-5.26-.28-4.55-2.2c.29-.78,1.37-4,2.32-5.12s.88-2.84,1.79-4.64,3.5-2,5.35-5a64.28,64.28,0,0,0,5.1-12.49C358,34.24,359.24,32.72,360.7,32.61Z"/><path class="cls-7" d="M351,67.34a4.05,4.05,0,0,0-2.33-.48c-.33,0-.7,0-1.19,0-3,0-4.67-.54-5.41-1.62a2.3,2.3,0,0,1-.22-2.14l.13-.33a19.83,19.83,0,0,1,2.39-5.14,5.67,5.67,0,0,0,.7-1.79,13.57,13.57,0,0,1,.95-2.62,6.23,6.23,0,0,1,2.42-2.31,8.51,8.51,0,0,0,3-2.79,61.52,61.52,0,0,0,5-12.15c.67-2.87,2.34-4.74,4.36-4.89h.12c1.08,0,2.62,1,4.21,2.44-2.42-3.69-9.7-10.52-10.78-12.19-3.21-5-8.25-10.18-21.76-12.69-5.33-1-5.13-1.57-18.86-.74C293,9.14,285.31,20.16,279.53,26.72s-16.39,8-21,14.89c-4.44,6.66-20.16,18.86-17,20,2.72,1,13.57.79,15.54,1,6.31.69,14.15,4.71,21,10.74,7.29,6.45,12.26,14.23,13.64,21.34,1.42,7.29.8,26.49-10.24,36.06-6.35,5.5-17,11.08-21.33,13.22-2.28,1.14-13.87,6.81-17.79,6.81-1.7,0-7.63,1.88-12.86,3.54-6.85,2.17-14.61,4.63-19.19,5.11-3,.32-10.19,2.68-18.47,5.4-13.28,4.38-29.8,9.82-42.17,11.28-8.76,1-18.94,4-27.92,6.65-7.89,2.31-14.13,4.14-17.68,4.14-1.66,0-6.07.08-7.4,1.17-8.48,7-24.34,17.9-32.4,24C53.35,220.33,31,236.37,32.12,240.92s3.44,4.7,10.37-1.15,32.09-13.59,37.08-16.84S95.6,219,106,216s14.3-3.68,26.43-4.12,27.3-.21,37.48,0,24.48,3,30.77.22,9.31-7.36,19.06-9.53,54.38-14.08,75.61-31,21.24-16.69,25.35-23.18,5.17-10.4,8.55-14.09,7.59-21.3,9.11-35.81c1.45-13.89,16.48-20.42,19.11-29.31A27,27,0,0,1,351,67.34Zm-10.17-29c-1.4,3-7.2.59-10-.36s-.46-.57.62-3.68a5.41,5.41,0,0,1,6.94-3.5C341.18,31.74,342.85,34,340.83,38.32Z"/></g><path class="cls-8" d="M329.14,12.41c-4.42-1-11.56-1.71-16.48.37s-7.64,5.76-8,10.35c-.23,2.91-.68,5.12,1.4,9.57,1,2.13,5.84,2.39,4.38,4.16s-4.46,4.62-4.71,6.48-4,5.14-4.69,6.85-5.05-1.19-8.15.22-8.8-2-12,.18-8.85,7.15-8.85,7.15S270.8,67,273.17,65s7.86-7.24,10.76-6,2.54,7.07,7,8.91c4.19,1.71,11,3,15.07,1.12,3.86-1.82,8.51-12.61,8.51-12.61s3.05,6,7.81,7.14c5.14,1.18,8.08-3.71,8.74-5.28,1.63-3.86-2.38-8.74-.82-8.53s14.3,4.85,19.38,4.67,9.64-6.54,9.68-11.37S354.49,32,352.06,28,338.7,14.55,329.14,12.41Z"/><path class="cls-9" d="M296.73,17a7.92,7.92,0,0,1,2.95.65c.31.12.34.54.62.7s.65-.07.83.05c1.38.88,2.38,2,2.45,3.15,0,.67-.67,2.79-.51,3.86,0,.16-.37.42-.35.59s.49.26.52.43c.37,2.14.25,3.63,1,5a16.27,16.27,0,0,1,1.52,2.38c0,.08-.07.45-.05.53.09.27.27.25.31.5a12.81,12.81,0,0,1-.19,4c-.37,1.44-.13,4.53-1.53,4.87s-3.15,5.37-5.15,4.8-8.93.77-10-.3-7,.9-7.2-2.91,1-2.32-.34-6.38c-.25-.76.2-1.33.13-2,0-.15-.63-.44-.64-.59a9.09,9.09,0,0,1,1.25-5.08c2.51-5.23,2.11-2.08,3.19-4.15.08-.16-.61-1-.52-1.19a19.77,19.77,0,0,1,2.32-3.85c1.63-1.66,1.64-.42,2.84-1.27.22-.16.13-.88.34-1.06,2.48-2.12,2.26-1.13,3.27-1.62.18-.09.21-.45.38-.52A6.16,6.16,0,0,1,296.73,17Z"/><path class="cls-10" d="M313.26,14.46c-2.32,1.18-4.35,3.93-.32,3.34s9.84-3.09,8.66-4S316.26,12.94,313.26,14.46Z"/><path class="cls-11" d="M308.32,31.62c1,1.28,5.1,1.79,5.7-1.45s-3.62-6.71-5.34-4.75S306.63,29.38,308.32,31.62Z"/><g id="Visual_Cortex" data-name="Visual Cortex"><path class="cls-12" d="M327.21,5.62V10.5h5.63V5.62h1.53V17.28h-1.53V11.81h-5.63v5.47H325.7V5.62Z"/><path class="cls-12" d="M339.54,17.28l-3.8-11.66h1.62l1.82,5.74c.5,1.58.93,3,1.24,4.36h0c.33-1.35.81-2.82,1.33-4.34l2-5.76h1.61L341.2,17.28Z"/><path class="cls-12" d="M354.78,16.89a7.42,7.42,0,0,1-3.08.56c-3.29,0-5.76-2.08-5.76-5.9A5.8,5.8,0,0,1,352,5.43a6.15,6.15,0,0,1,2.76.52l-.36,1.23a5.41,5.41,0,0,0-2.35-.49c-2.73,0-4.55,1.75-4.55,4.81,0,2.85,1.65,4.69,4.48,4.69a6,6,0,0,0,2.46-.49Z"/></g><g id="Visual_Cortex-2" data-name="Visual Cortex"><path class="cls-12" d="M237.76,26.06a21.43,21.43,0,0,1,3.2-.24,6.68,6.68,0,0,1,4.72,1.45,5.35,5.35,0,0,1,1.64,4.18A6.18,6.18,0,0,1,245.65,36a7.19,7.19,0,0,1-5.16,1.68,23.41,23.41,0,0,1-2.73-.14Zm1.51,10.3a9.31,9.31,0,0,0,1.52.09c3.21,0,5-1.8,5-4.94,0-2.75-1.54-4.5-4.72-4.5a8.14,8.14,0,0,0-1.76.16Z"/><path class="cls-12" d="M256.87,33.31a4.09,4.09,0,0,1-4.17,4.44,4,4,0,0,1-4-4.31A4.09,4.09,0,0,1,252.84,29,4,4,0,0,1,256.87,33.31Zm-6.64.08c0,1.83,1.06,3.22,2.54,3.22s2.55-1.37,2.55-3.25c0-1.42-.71-3.22-2.51-3.22S250.23,31.8,250.23,33.39Z"/><path class="cls-12" d="M258.8,31.8c0-1,0-1.83-.07-2.61h1.33l.05,1.64h.07A2.52,2.52,0,0,1,262.5,29a1.88,1.88,0,0,1,.43.05v1.44a2,2,0,0,0-.52-.06,2.14,2.14,0,0,0-2,2,3.79,3.79,0,0,0-.07.71v4.46h-1.5Z"/><path class="cls-12" d="M264.24,36a4,4,0,0,0,2,.61c1.11,0,1.62-.56,1.62-1.25s-.43-1.12-1.55-1.54c-1.5-.53-2.21-1.36-2.21-2.37A2.58,2.58,0,0,1,267,29a4.15,4.15,0,0,1,2.06.52l-.38,1.11a3.22,3.22,0,0,0-1.71-.49c-.9,0-1.4.52-1.4,1.14s.5,1,1.59,1.42c1.45.55,2.2,1.28,2.2,2.52,0,1.47-1.15,2.51-3.13,2.51a4.76,4.76,0,0,1-2.36-.57Z"/><path class="cls-12" d="M275.94,37.56l-.13-1.06h-.05a3.09,3.09,0,0,1-2.56,1.25,2.38,2.38,0,0,1-2.55-2.41c0-2,1.79-3.12,5-3.11v-.17a1.73,1.73,0,0,0-1.91-1.94,4.15,4.15,0,0,0-2.17.63l-.35-1A5.17,5.17,0,0,1,274,29c2.56,0,3.18,1.75,3.18,3.42v3.13a11.18,11.18,0,0,0,.14,2Zm-.23-4.27c-1.66,0-3.54.26-3.54,1.88a1.34,1.34,0,0,0,1.43,1.45,2.07,2.07,0,0,0,2-1.4,1.32,1.32,0,0,0,.09-.48Z"/><path class="cls-12" d="M279.64,25.28h1.52V37.56h-1.52Z"/><path class="cls-12" d="M287.44,26.06a16.19,16.19,0,0,1,2.89-.24,4.75,4.75,0,0,1,3.37.95,2.88,2.88,0,0,1,.91,2.21,3.06,3.06,0,0,1-2.19,3v0a2.88,2.88,0,0,1,1.71,2.35,18.88,18.88,0,0,0,.9,3.2h-1.56a14.62,14.62,0,0,1-.77-2.79c-.35-1.6-1-2.21-2.34-2.26H289v5.05h-1.51ZM289,31.37h1.53c1.61,0,2.63-.88,2.63-2.22,0-1.5-1.09-2.16-2.68-2.17a6,6,0,0,0-1.48.14Z"/><path class="cls-12" d="M298.72,33.89l-1.21,3.67H296l4-11.65h1.82l4,11.65h-1.61l-1.24-3.67Zm3.82-1.17-1.14-3.36c-.26-.76-.43-1.45-.61-2.12h0c-.18.69-.37,1.4-.59,2.11L299,32.72Z"/></g></svg>