<svg xmlns="http://www.w3.org/2000/svg" xmlns:xlink="http://www.w3.org/1999/xlink" viewBox="0 0 413.45 260.22"><defs><style>.cls-1{fill:url(#radial-gradient);}.cls-2{fill:#ed1c24;opacity:0.75;}</style><radialGradient id="radial-gradient" cx="215.49" cy="135.31" r="154.77" gradientTransform="translate(0 -10.07) scale(1 1.07)" gradientUnits="userSpaceOnUse"><stop offset="0" stop-color="#231f20" stop-opacity="0.32"/><stop offset="1" stop-color="#231f20" stop-opacity="0.75"/></radialGradient></defs><g id="Layer_4" data-name="Layer 4"><path id="Zebrafish" class="cls-1" d="M180.76,96.7c-5.36,1.32-14.57,3.93-25.35,6.45a31.93,31.93,0,0,0-7-2c-5.33-.63-7.06-4.71-9.72-8.94s-3.3-14-.32-16.47,20.7-5.81,29.64-7.06S189.23,72.94,199.27,80a62.87,62.87,0,0,1,12.06,11.15C198.68,93,187,95.19,180.76,96.7ZM404,118.43c.24-.32,1.81-1-1.33-3.45S375,98,345.56,94s-76.11-6.47-95.87-5.76-54.58,6.35-67.05,9.41-45.88,13.17-71.28,12.7-38.12-6.82-60.23-19.76S13.49,80,12.08,80.71s-4,4.47-1.41,8.7,9.4,11.53,9.87,15.29,8,13.86,8.48,15.64-.95,10.48-3.06,13.77-4.24,7.74-4.71,10.69-7.76,11.19-9.65,15-2.58,9.64,1.89,12S34.43,168.7,49,161.17s30.59-12.94,35.76-12.94h26.35s-4.7,2.11-1.18,7.76,9,10.82,10.83,12,6.82,3.06,8.7,6.35,9.88,4.24,11.77,7.3,6.35,4.23,13.87,4.7,18.12-2.35,23.06-4.47,13.88-3.29,15.29-5.41,9.61-11.53,13.63-10.82,6.6,5.88,6.13,8.94,1.42,8.33,5.89,11.81,6.82,7,14.35,1.13,16.23-13.65,20.23-14.12,3.53-1.65,7.29-1.65,17.8,1.41,40.07-.78,44.7-6.59,47.06-8,12.07-5.48,17.25-7.21,17.41-7.22,23.21-12.86,14.59-14.51,15.69-17.1,1.36-5.35.36-5.8C402,118.82,404,118.43,404,118.43Zm-8.94,2.8a12.29,12.29,0,1,1-12.29-12.29A12.3,12.3,0,0,1,395.08,121.23Zm-11.14-7.11a6.63,6.63,0,1,0,6.63,6.62A6.62,6.62,0,0,0,383.94,114.12Z"/><path id="Zebrafish-2" data-name="Zebrafish" class="cls-2" d="M395.08,121.23a12.29,12.29,0,1,1-12.29-12.29A12.3,12.3,0,0,1,395.08,121.23ZM314.7,169.37c17-2.28,31.54-5.28,33.41-6.4,2.35-1.41,12.07-5.48,17.25-7.21s17.41-7.22,23.21-12.86,14.59-14.51,15.69-17.1,1.36-5.35.36-5.8c-2.6-1.18-.6-1.57-.6-1.57.24-.32,1.81-1-1.33-3.45S375,98,345.56,94c-8.95-1.22-19.5-2.29-30.4-3.18m68.78,23.3a6.63,6.63,0,1,0,6.63,6.62A6.62,6.62,0,0,0,383.94,114.12Zm11.14,7.11a12.29,12.29,0,1,1-12.29-12.29A12.3,12.3,0,0,1,395.08,121.23ZM314.7,169.37c17-2.28,31.54-5.28,33.41-6.4,2.35-1.41,12.07-5.48,17.25-7.21s17.41-7.22,23.21-12.86,14.59-14.51,15.69-17.1,1.36-5.35.36-5.8c-2.6-1.18-.6-1.57-.6-1.57.24-.32,1.81-1-1.33-3.45S375,98,345.56,94c-8.95-1.22-19.5-2.29-30.4-3.18m68.78,23.3a6.63,6.63,0,1,0,6.63,6.62A6.62,6.62,0,0,0,383.94,114.12Z"/></g></svg>