<?xml version="1.0" encoding="utf-8"?>
<!-- Generator: Adobe Illustrator 26.0.1, SVG Export Plug-In . SVG Version: 6.00 Build 0)  -->
<svg version="1.1" id="Layer_1" xmlns="http://www.w3.org/2000/svg" xmlns:xlink="http://www.w3.org/1999/xlink" x="0px" y="0px"
	 viewBox="0 0 413.5 260.2" style="enable-background:new 0 0 413.5 260.2;" xml:space="preserve">
<style type="text/css">
	.st0{fill:url(#Zebrafish_00000171695235345686784460000001738054808775141019_);}
	.st1{fill:#ED1C24;}
	.st2{enable-background:new    ;}
	.st3{fill:#231F20;}
</style>
<g id="Layer_4">
	
		<radialGradient id="Zebrafish_00000168815941948326647440000004765466894795435160_" cx="-151.78" cy="134.3465" r="435.38" gradientTransform="matrix(1 0 0 -1.07 0 288.1)" gradientUnits="userSpaceOnUse">
		<stop  offset="0" style="stop-color:#231F20;stop-opacity:0.32"/>
		<stop  offset="1" style="stop-color:#231F20;stop-opacity:0.75"/>
	</radialGradient>
	<path id="Zebrafish" style="fill:url(#Zebrafish_00000168815941948326647440000004765466894795435160_);" d="M-249.5,36.4
		c-15.1,3.7-41,11-71.3,18.1c-6.8-2.6-14-4.9-19.6-5.5c-15-1.8-19.9-13.2-27.4-25.2s-9.3-39.3-0.9-46.3s58.2-16.3,83.4-19.9
		s59.6,11.9,87.8,31.8c12.6,8.9,24,19.5,33.9,31.4C-199.1,26-232,32.1-249.5,36.4z M378.5,97.5c0.7-0.9,5.1-2.9-3.8-9.7
		s-78-47.8-160.7-59S0,10.6-55.6,12.6S-209.1,30.4-244.2,39s-129.1,37.1-200.5,35.8s-107.2-19.2-169.4-55.6S-720-10.6-724-8.6
		s-11.2,12.6-4,24.5s26.5,32.4,27.8,43s22.5,39,23.8,44s-2.7,29.5-8.6,38.8s-11.9,21.8-13.2,30.1s-21.8,31.4-27.1,42
		s-7.3,27.1,5.3,33.8s58.9-8.6,99.9-29.8s86-36.4,100.6-36.4h74.1c0,0-13.2,6-3.3,21.8s25.2,30.4,30.5,33.8s19.2,8.6,24.5,17.9
		s27.8,11.9,33.1,20.5s17.9,11.9,39,13.2s51-6.6,64.9-12.6s39-9.3,43-15.2s27-32.4,38.3-30.4s18.6,16.5,17.2,25.1s4,23.4,16.6,33.2
		s19.2,19.7,40.4,3.2s45.7-38.4,56.9-39.7s9.9-4.6,20.5-4.6s50.1,4,112.7-2.2s125.7-18.5,132.4-22.5s34-15.4,48.5-20.3
		c14.5-4.9,49-20.3,65.3-36.2s41-40.8,44.1-48.1s3.8-15,1-16.3C373,98.6,378.6,97.5,378.5,97.5L378.5,97.5z M349.4,110.4
		c0,19.1-15.5,34.6-34.6,34.6c-19.1,0-34.6-15.5-34.6-34.6s15.5-34.6,34.6-34.6c0,0,0,0,0,0C333.9,75.8,349.4,91.3,349.4,110.4
		C349.4,110.4,349.4,110.4,349.4,110.4L349.4,110.4z M322.1,85.4c-10.3,0-18.6,8.4-18.6,18.7c0,10.3,8.4,18.6,18.7,18.6
		c10.3,0,18.6-8.4,18.6-18.7C340.7,93.7,332.4,85.4,322.1,85.4L322.1,85.4z"/>
	<circle class="st1" cx="348.5" cy="81.9" r="6.9"/>
	<g class="st2">
		<path class="st3" d="M373,50.5c0,10-6.1,15.2-13.4,15.2c-7.6,0-13-5.9-13-14.7c0-9.2,5.7-15.2,13.4-15.2
			C367.8,35.9,373,41.9,373,50.5z M350.5,51c0,6.2,3.4,11.7,9.2,11.7c5.9,0,9.3-5.5,9.3-12c0-5.8-3-11.8-9.2-11.8
			C353.6,38.9,350.5,44.6,350.5,51z"/>
		<path class="st3" d="M377.8,36.7c1.6-0.3,4.2-0.6,6.8-0.6c3.7,0,6.1,0.6,7.9,2.1c1.5,1.1,2.4,2.8,2.4,5.1c0,2.8-1.8,5.2-4.9,6.4
			v0.1c2.7,0.7,6,3,6,7.3c0,2.5-1,4.4-2.4,5.8c-2,1.8-5.3,2.7-10,2.7c-2.6,0-4.6-0.2-5.8-0.3V36.7z M381.5,48.6h3.4
			c4,0,6.3-2.1,6.3-4.9c0-3.4-2.6-4.7-6.4-4.7c-1.7,0-2.7,0.1-3.3,0.3V48.6z M381.5,62.5c0.7,0.1,1.8,0.2,3.1,0.2
			c3.9,0,7.4-1.4,7.4-5.6c0-4-3.4-5.6-7.5-5.6h-3.1V62.5z"/>
	</g>
</g>
</svg>
