<svg xmlns="http://www.w3.org/2000/svg" xmlns:xlink="http://www.w3.org/1999/xlink" viewBox="0 0 413.45 260.22"><defs><style>.cls-1{fill:url(#radial-gradient);}</style><radialGradient id="radial-gradient" cx="676.27" cy="129.6" r="149.75" gradientTransform="translate(-422.07 0.02) scale(0.93 1)" gradientUnits="userSpaceOnUse"><stop offset="0" stop-color="#231f20" stop-opacity="0.32"/><stop offset="1" stop-color="#231f20" stop-opacity="0.75"/></radialGradient></defs><g id="Layer_4" data-name="Layer 4"><path class="cls-1" d="M396.52,189.31s-8.51-52.1-23-73.79S339.32,67.88,313,70s-38.6,16.16-49.09,27-24.54,26.72-43.55,20.91-40.57-24.32-53.44-27.5-37.8-2.34-55.62,14.67-32.46,38.28-49.68,36.79-43.34-24-43.34-24,.59,22.26,12.86,31.83S59.05,170.59,85.57,161s28.7-26.8,45.73-35.09,28.1-8.51,40-1.07,33.45,24.68,56,24.25,42-16.16,50.08-25.31,24.74-27.64,40.18-25.94,31.08,22.54,36,28.71,16.63,20.41,18,25.51,8.32,17.65,13.27,23.82S396.52,189.31,396.52,189.31Z"/></g></svg>