<svg xmlns="http://www.w3.org/2000/svg" xmlns:xlink="http://www.w3.org/1999/xlink" viewBox="0 0 413.45 260.22"><defs><style>.cls-1{fill:url(#radial-gradient);}</style><radialGradient id="radial-gradient" cx="205.49" cy="136.21" r="157.61" gradientTransform="translate(0 -10.13) scale(1 1.07)" gradientUnits="userSpaceOnUse"><stop offset="0" stop-color="#231f20" stop-opacity="0.32"/><stop offset="1" stop-color="#231f20" stop-opacity="0.75"/></radialGradient></defs><g id="Layer_4" data-name="Layer 4"><path class="cls-1" d="M398.92,107.4c-2.4,19.11-11.08,39.15-24.15,39.59-12.85.44-31.81-18-39.33-36.4-1.52,9.61-4.3,18.82-9.32,26-.44,0-.77.05-.83.06-12.37,0-24.87-7.17-25.4-7.49l-.56-.35a6.13,6.13,0,0,0-2.66-.89c-.25-4.73-.44-9.24-.6-13-.48-11.4-.58-12.84-1.05-14.06-.74-1.89-4-7.28-9-7.28-1.81,0-5.17.74-7.43,5.7-3.2,7-10.53,28.15-10.84,29a17.43,17.43,0,0,0-.58,2.33c-2.45-.12-6-.22-6.22-.36-37.44-30.51-40.6-30.89-41.95-31-.18,0-.42,0-.6,0-9.4,0-22,44-23.83,54.37-.23,1.25-.5,2.48-.77,3.72-8.93,5.14-17.93,10.42-25.25,16-12.76,9.63-35.79,16.05-46.44,7.43-19.84-16.11-6.09-51.59,17-80S192.81,68,212.66,84.07c2.28,1.85,4.56,3.5,6.79,5.08-1.86-6.07-4.33-12.92-6.12-19.47C254.44,59.61,254.11,54,253.8,50.28c-.62-7.9-9.41-7.82-14.67-7.73-1.35,0-2.73,0-4,0-3.5-.19-7.95-.48-13.06-.81h-.27c11.75-5.8,28.76-7.94,46.29-8.56,37.63-1.28,65.93,14.54,68.63,41.22,4.93-10.3,13.4-17.25,23.27-17.59,8.68-.3,19.28,4.42,27.32,12.25,6.89,6.68,12.32,8,14.81,17.68C405.36,99.27,399.46,103,398.92,107.4ZM354.29,73.2c-10.75,3.21-15.88,17.72-11.48,32.43s16.68,24,27.42,20.77,20.37-19.55,16-34.23S365.05,70,354.29,73.2ZM234.87,46.84c-21.1-1.17-76.44-5.54-106.24-3.2C62.59,48.84,7.19,69.86,7.91,78.9S33,88.65,99.05,83.46s151.14-23.8,150.44-32.83C249.09,45.66,241,47.18,234.87,46.84Zm-56.68,172.4c.94-1.06,22.55-26.27,29.2-63.35,2.5-14,10.38-35.29,14.09-39.16s30.57,21.59,30.57,21.59c1.9,1.43,8.17,2.05,9.62.13s-1.43-3.23-3.34-4.68c0,0-36.59-29.81-39.86-30.2s-16,30.49-19.63,50.79c-6.2,34.64-27,58.95-27.19,59.19-1.56,1.8-9.57,10.32-7.75,11.88.81.72,10-4.7,11-4.7A4.27,4.27,0,0,0,178.19,219.24Zm187.68,14.15c2.19-1-6-8.42-7-10.61-4.46-10.11-16.26-38.17-17.44-46.57-1.14-8.14,2.57-24.19,4.09-29.69,0,0,2.2-3.73,1.29-5.49s-21.18,0-21.18,0c-14.29,0-27.82-8-28-8.07-2.05-1.22-.49-.76-1.72,1.29s.16,7.62,2.22,8.84c.63.4,10.74,6.61,27.47,6.61,0,0,11.25-2.57,10.16,0s-4.07,19.65-2.95,27.71c1.54,11.12,16.4,45,18.1,48.88a4.35,4.35,0,0,0,4,2.58C355.53,228.87,365.3,233.65,365.87,233.39Zm-28.7,6c2-1.31-3.32-8.13-4.61-10.14-9.23-14.14-33.86-53.75-36.83-66.91-3.65-16.2-4-57.75-4.77-59.85s-5.28-8.2-8.44-1.32-10.67,28.64-10.67,28.64c-.8,2.25-1.85,10.45.41,11.26s4.85,1.53,5.66-.74l5.31-15c.73,13.57,2,29.9,4,39,3.92,17.35,36.62,67.6,38,69.73a4.37,4.37,0,0,0,3.64,2C329.73,235.91,337.17,239.35,337.17,239.35Zm-61.53-93.22a14.57,14.57,0,0,1-4.83-1,5.93,5.93,0,0,1-2.75-2.35A56.81,56.81,0,0,1,257.68,144c-2.57,0-6.09-.58-8.26-2.22-.12-.09-.23-.2-.35-.31-9.25-8.76-21-18.38-25.41-20.41-2.31,3.85-6.28,13.94-9.19,24,6.28-4,11.72-8,15.2-12,10.6,12.44,30.3,17.28,51.24,18.33-.24-2.15-.47-4.42-.7-6.87A6.74,6.74,0,0,1,275.64,146.13Zm22.8,5.28a44.74,44.74,0,0,0,6.23-.71,51.42,51.42,0,0,1-6.6-2.74C298.2,149.14,298.31,150.29,298.44,151.41Z"/></g></svg>