<svg xmlns="http://www.w3.org/2000/svg" xmlns:xlink="http://www.w3.org/1999/xlink" viewBox="0 0 413.45 260.22"><defs><style>.cls-1{opacity:0.5;}.cls-2{fill:url(#radial-gradient);}.cls-3{fill:url(#radial-gradient-2);}</style><radialGradient id="radial-gradient" cx="250.21" cy="124.41" r="111.26" gradientTransform="matrix(1, 0.03, -0.03, 1, -42.5, -1.55)" gradientUnits="userSpaceOnUse"><stop offset="0" stop-color="#231f20" stop-opacity="0.32"/><stop offset="1" stop-color="#231f20" stop-opacity="0.75"/></radialGradient><radialGradient id="radial-gradient-2" cx="216.48" cy="103.43" r="77.99" gradientTransform="matrix(1, 0, 0, 1, 0, 0)" xlink:href="#radial-gradient"/></defs><g id="Layer_4" data-name="Layer 4"><g class="cls-1"><path class="cls-2" d="M297.26,250.14c-3.06-4.55-6.3-27.37-7.54-36.94s-7.38-21.94-1.8-42.34,12.13-55.2,12.11-72.18,2.26-41-7.67-56S272.7,17.71,254.59,12s-29-7.72-57-5.51C174,8.32,161.55,16.1,152.21,27.12a90,90,0,0,0-11.77,18.32,132.2,132.2,0,0,0-6.87,16.87c-2.07,5.16-2,15-2.58,21.91s1.88,13.12.79,16.46S123,113.3,119.61,116.27c-2.94,2.55-6.28,7.29-7.77,9.11s-5.72,9.16-3.49,12.15a25.12,25.12,0,0,0,3.1,3.05c2.68,2,12.41,4.1,13,4.26a1.94,1.94,0,0,1,1.11,2.33c-1.28,2.44-3.59,7-3.59,7a11,11,0,0,0,.5,5.91c1.17,3,2,3,1,5.13a14,14,0,0,0-.9,8.81s4.36,4.2,5.87,8.42-1,9.48.54,15.34,3.21,9.87,10.75,11.57c15,3.37,26-3.85,35.3-2.24s2.49,37.11,1.86,46.31"/></g><path class="cls-3" d="M243.49,186.49s-10.89-48.78-10.92-50.44-1.55-5.25.82-6.2a1.23,1.23,0,0,0,.58-.47,16.42,16.42,0,0,0,6.37,2.05c1.82.26,3.16,1.53,6.84,2.83s7.39,1.06,11.35.43,9.63-6,12.4-8.69a10.17,10.17,0,0,0,3.26-8,51,51,0,0,0-1.54-6.28,33.23,33.23,0,0,0,4.49-1.81A17.68,17.68,0,0,0,283,104.8c1.41-2,4.63-11.29,5.1-12.41s.71-7.33.92-9.54-.28-7.57-.93-8.71a13.89,13.89,0,0,0-3.68-3.75,5.46,5.46,0,0,0,0-1.93,11.39,11.39,0,0,0-3.24-5.72c-.72-.56.08-1.83-.18-3s-2.05-6.29-2.89-6.42-.52-.07-.81-.58-.55-5.29-1.76-6.24-2.27-2.23-2.69-2.53-.27-.9-.85-2a27.8,27.8,0,0,0-2.77-3.83c-.82-1-2.2-2.54-3.08-2.61a.34.34,0,0,0-.39.19c-.7-.93-5.33-.85-5.84-1.28a22.4,22.4,0,0,0-2.44-2.55c-1.09-.75-1.84-.81-2.31-1.26s-.5-.81-1.33-1.19-3.63-.65-4.4-1.33A19.14,19.14,0,0,0,243.92,25c-1.84-.51-8-1.78-8.87-1.57s-1.9.27-3.77-1.05-7.64-2-8.5-2-1.41,1.21-2.54.93A15,15,0,0,0,214.8,21c-1.43.37-4.62,1.42-6.83,1.43a22.87,22.87,0,0,0-5.71.73,24.46,24.46,0,0,1-5.35.53c-.79,0-.67.74-2.95.63s-4.8-.44-6.49.13-2.58,2.58-4.27,2.62a30.87,30.87,0,0,0-5.28.76c-1.35.31-3.88,4.84-5.46,5.18a33.5,33.5,0,0,0-6.37,1.78c-1.75.84-4.78,3-4.91,3.46a3.52,3.52,0,0,1-1.06,2.22c-.83.67-5.26,4.15-5.78,4.58s-3.58,2.93-3.78,3.45-1.61,1.06-2.28,1.86-1.7,1.69-1.69,3.05.71,3.18.39,3.61-2,1.18-2.37,2.65-1.1,4.82-.42,6.07,2,1.83,1.9,2.56a38.43,38.43,0,0,0,.37,4,9.11,9.11,0,0,0,.8,2.62c.29.61,1.35,1.41,1.42,2.47A9,9,0,0,0,150.62,81c.6.63,2.5,2.62,3.82,2.84a9.8,9.8,0,0,1,3.2,1.48,39.09,39.09,0,0,0,8.5,1.66,5.88,5.88,0,0,1,2.61.57c.93.3.84-.14,2.47-.14,1.07,0,1.52,1.92,1.7,3.39-1.19,2.42-2.16,5-1.28,6.91,1,2.15,2.45,2.83,5,4.73s4.38,1.39,6.14,2.6,4.35,4.44,6.83,4.89,12.63-.65,14.09-1.58a4.34,4.34,0,0,0,1-.94c1.25,0,2.12-.14,2.43.55.47,1,2.26.84,3.14,3.75.47,1.58-.85,10.11,5.88,13.31,2.75,1.31,4.15,4.6,4.57,6.44s12.64,52.59,12.64,52.59"/></g></svg>