<svg xmlns="http://www.w3.org/2000/svg" xmlns:xlink="http://www.w3.org/1999/xlink" viewBox="0 0 413.45 260.22"><defs><style>.cls-1{fill:url(#radial-gradient);}.cls-2{fill:url(#radial-gradient-2);}.cls-3{fill:none;stroke-linecap:round;stroke-width:6px;stroke:url(#linear-gradient);}</style><radialGradient id="radial-gradient" cx="114.1" cy="68.45" r="85.07" gradientTransform="translate(0 -5.09) scale(1 1.07)" gradientUnits="userSpaceOnUse"><stop offset="0" stop-color="#231f20" stop-opacity="0.32"/><stop offset="1" stop-color="#231f20" stop-opacity="0.75"/></radialGradient><radialGradient id="radial-gradient-2" cx="274.52" cy="184.58" r="100.92" gradientTransform="translate(0 -13.72) scale(1 1.07)" xlink:href="#radial-gradient"/><linearGradient id="linear-gradient" x1="38.34" y1="130.11" x2="375.1" y2="130.11" gradientUnits="userSpaceOnUse"><stop offset="0.09" stop-color="#5c5d60"/><stop offset="1" stop-color="#010000"/></linearGradient></defs><g id="Layer_4" data-name="Layer 4"><path class="cls-1" d="M218.51,52.9c-1.3,10.31-6,21.12-13,21.36s-17.17-9.69-21.23-19.64c-.82,5.19-2.32,10.15-5,14.05l-.45,0c-6.67,0-13.42-3.87-13.71-4l-.3-.19a3.2,3.2,0,0,0-1.44-.48c-.13-2.56-.23-5-.32-7-.26-6.15-.31-6.93-.57-7.59-.4-1-2.13-3.93-4.86-3.93-1,0-2.78.4-4,3.08-1.72,3.77-5.68,15.19-5.85,15.67a10.37,10.37,0,0,0-.31,1.26c-1.32-.07-3.25-.12-3.36-.2C123.82,48.8,122.12,48.59,121.39,48.5h-.32c-5.08,0-11.86,23.74-12.86,29.34-.13.68-.28,1.34-.42,2a131.49,131.49,0,0,0-13.63,8.62c-6.89,5.2-19.32,8.67-25.07,4-10.71-8.69-3.28-27.85,9.15-43.18s29-17.68,39.73-9c1.23,1,2.46,1.89,3.66,2.74-1-3.28-2.33-7-3.3-10.51,22.19-5.43,22-8.46,21.84-10.47-.33-4.26-5.08-4.22-7.92-4.17-.73,0-1.47,0-2.15,0-1.89-.1-4.29-.26-7-.43h-.15c6.34-3.13,15.53-4.29,25-4.62,20.31-.69,35.58,7.85,37,22.25,2.66-5.56,7.23-9.31,12.56-9.5,4.69-.16,10.41,2.4,14.75,6.62,3.72,3.61,6.65,4.33,8,9.54C222,48.5,218.8,50.52,218.51,52.9ZM194.42,34.43c-5.81,1.73-8.57,9.57-6.2,17.51s9,13,14.8,11.21,11-10.55,8.62-18.48S200.22,32.69,194.42,34.43ZM130,20.21c-11.39-.64-41.26-3-57.35-1.73C37,21.29,7.06,32.63,7.45,37.51S21,42.77,56.64,40s81.59-12.84,81.21-17.72C137.63,19.57,133.27,20.39,130,20.21Zm-30.6,93.05a77.07,77.07,0,0,0,15.76-34.19c1.36-7.58,5.61-19,7.61-21.14s16.5,11.65,16.5,11.65c1,.78,4.41,1.1,5.19.07s-.77-1.74-1.8-2.52c0,0-19.75-16.09-21.52-16.3s-8.63,16.46-10.59,27.41a73.83,73.83,0,0,1-14.68,32c-.84,1-5.17,5.57-4.18,6.42.44.38,5.41-2.54,6-2.54A2.28,2.28,0,0,0,99.36,113.26Zm101.31,7.64c1.18-.52-3.24-4.55-3.76-5.73-2.41-5.45-8.78-20.6-9.42-25.13s1.39-13.06,2.22-16c0,0,1.18-2,.69-3S179,71,179,71c-7.71,0-15-4.31-15.1-4.35-1.11-.66-.26-.41-.93.69s.09,4.12,1.2,4.78c.34.21,5.8,3.56,14.83,3.56,0,0,6.07-1.38,5.48,0s-2.2,10.61-1.59,15c.83,6,8.86,24.32,9.77,26.39a2.35,2.35,0,0,0,2.14,1.39C195.09,118.46,200.36,121,200.67,120.9Zm-15.49,3.22c1.08-.71-1.8-4.4-2.49-5.48-5-7.63-18.28-29-19.89-36.11-2-8.75-2.13-31.18-2.57-32.31s-2.85-4.42-4.55-.71S149.92,65,149.92,65c-.44,1.21-1,5.64.22,6.07s2.62.83,3.05-.39l2.87-8.12c.39,7.33,1.07,16.14,2.18,21,2.12,9.37,19.76,36.49,20.52,37.64a2.36,2.36,0,0,0,2,1.06A45.81,45.81,0,0,1,185.18,124.12ZM152,73.8a7.79,7.79,0,0,1-2.6-.55A3.24,3.24,0,0,1,147.87,72a30.76,30.76,0,0,1-5.6.66,8,8,0,0,1-4.46-1.19l-.19-.17c-5-4.73-11.31-9.92-13.71-11a69.55,69.55,0,0,0-5,12.95,39.38,39.38,0,0,0,8.2-6.49c5.72,6.72,16.35,9.33,27.66,9.9-.14-1.16-.26-2.39-.38-3.71A3.63,3.63,0,0,1,152,73.8Zm12.31,2.85a23.44,23.44,0,0,0,3.36-.39,26.64,26.64,0,0,1-3.56-1.47C164.14,75.42,164.2,76,164.27,76.65Z"/><path class="cls-2" d="M400.29,176c-.32.9-3.31,3.1-3.93,3.22a24.35,24.35,0,0,1-5.79-1.42,7.21,7.21,0,0,0,1.91,1.11c1,.29,2.83.85,2.39,1.11s-7,5.33-10.32,5.62-20.13,1.19-23.87-.49-5.47-.26-11.34.69-5.93,2-9,1.11a27.3,27.3,0,0,0-7.22-.46,29.91,29.91,0,0,1,3.42.46c2.63.56,4.29,1.18,4,1.65s-.62.42-5,2.15-3,2-5.67,4.67a28.37,28.37,0,0,1-3.16,2.53,10.23,10.23,0,0,1-1.28,3.21c-1.61,2.14-1.21,7.61-.41,10.15s2.81.4,6.27,2.83,6.26,1.91,6.13,4-11.6,5.54-12.26,3.41-3.87.27-6.42,0-1.32-4.53-.8-6.95.41-7.61-1.6-9.74a4.6,4.6,0,0,0-.64-.57c-1.71.68-3.11,1-3.9.7-3-1.15-9.08,2.14-11.22,3.38s-6.76,4.1-5.42,6.77,5.34,6.68,8.64,8.63,7.73,1.43,8.81,3.12-10,5.09-13.18,4.1c-1.88-.58-7.35,2.25-7.27-2.38s-2-6.35-6.35-8.22-9.43-.53-14.34-3.74-8.26-3-13.7-1.69-13.52,2.95-13.62,4.81-10.41,5.08-6.41,5.52,18.33,1.86,17.53,7.92c-.35,2.65-3.09.49-5.32,0s-5.74,2.13-10.46.53a47.63,47.63,0,0,0-13.62-2.58c-3.47,0-16.39-4.58-18.62-5.83s-.54-10.69-5-15.74c-3.05-3.47-8-10-10-10.17s-8.6.69-11.18.69h-.06c-6.13,1.1-13.49,3-18.22,6.11-9.14,6-7.52,9.61-6.93,16.49.71,8.47,13.47,12.05,26.64,15.66s28.29,6.35,47.07,9.69c19.06,3.4,47.67-5.54,27.73.52s-36.69,2-68.38-4.3c-15.65-3.12-23.68-6.42-30.14-9.37-7.38-3.38-11.91-8.62-9.88-21,2.23-13.66,10.37-15.94,15.55-19.76,4.54-3.34,11.45-4.73,13.89-5.51h0c4.58-1.87,6.6-3,8.78-5.25s4.53-2.13,5.49-5.47c1.24-4.34,4.76-8.48,9.66-14.27s6.55-4.73,16.07-14.08c7.87-7.73,17.55-11.35,31.78-15.09,17.36-4.57,26.43-5.65,39.16-3s24.43,5,26.59,8.4c-.9-1.51-4.24-7.43-4.16-10,.15-4.83,4.87-9.72,8.94-11.15,5.46-1.89,11.14-1.33,15.94,3.37s7.59,13.45,7.59,13.45l1.56,0c-.68-2.81,0-6.51.26-7.89.37-2,7.41-5.42,13.11-5.48,8.74-.09,13.41,10.55,12.21,14.63-.54,1.8-3.27,3.71-4.9,5.84,4.7,3.45,12.67,8.17,13.31,11.05.79,3.52,6.67,7,8.63,8.42s9.78,4.7,11.16,9S400.61,175.06,400.29,176Zm-44-13.52c.12,3,6.56,1.68,9.1.64s3.74-4.83,2.08-5.35-8.32-2.83-10.21-1.27C355.64,157.83,356.17,159.51,356.3,162.45Z"/><line class="cls-3" x1="41.34" y1="234.2" x2="372.1" y2="26.02"/></g></svg>