<svg xmlns="http://www.w3.org/2000/svg" xmlns:xlink="http://www.w3.org/1999/xlink" viewBox="0 0 413.45 260.22"><defs><style>.cls-1{fill:url(#radial-gradient);}</style><radialGradient id="radial-gradient" cx="207.4" cy="129.6" r="159.48" gradientTransform="translate(0 -9.64) scale(1 1.07)" gradientUnits="userSpaceOnUse"><stop offset="0" stop-color="#231f20" stop-opacity="0.32"/><stop offset="1" stop-color="#231f20" stop-opacity="0.75"/></radialGradient></defs><g id="Layer_4" data-name="Layer 4"><path class="cls-1" d="M406.14,116c-.51,1.43-5.23,4.9-6.2,5.1s-7.52-1.46-9.17-2.24a11.51,11.51,0,0,0,3,1.74c1.66.47,4.47,1.34,3.78,1.76s-11.14,8.43-16.31,8.88-31.81,1.89-37.73-.76-8.64-.43-17.92,1.08-9.36,3.14-14.22,1.75c-3.32-.94-8-.8-11.42-.73a50.26,50.26,0,0,1,5.39.73c4.17.89,6.79,1.86,6.38,2.62s-1,.65-7.83,3.38-4.73,3.17-9,7.38a44.94,44.94,0,0,1-5,4,16.34,16.34,0,0,1-2,5.08c-2.53,3.38-1.9,12-.64,16s4.43.63,9.91,4.46,9.89,3,9.68,6.4-18.32,8.76-19.38,5.39-6.11.41-10.13,0-2.1-7.17-1.27-11,.65-12-2.52-15.4a10.19,10.19,0,0,0-1-.9c-2.7,1.08-4.93,1.59-6.17,1.12-4.78-1.83-14.34,3.37-17.73,5.33s-10.69,6.48-8.57,10.7,8.44,10.56,13.65,13.64,12.22,2.26,13.92,4.94-15.75,8-20.82,6.48c-3-.93-11.62,3.54-11.48-3.77s-3.15-10-10.05-13-14.9-.84-22.65-5.91-13.06-4.77-21.65-2.66-21.37,4.65-21.53,7.59-16.44,8-10.12,8.73,29,2.93,27.69,12.51c-.54,4.19-4.87.77-8.39-.07s-9.08,3.37-16.52.84-16-4.08-21.53-4.08-25.91-7.23-29.42-9.2-.87-16.9-7.89-24.88c-4.81-5.48-12.59-15.8-15.83-16.07s-13.58,1.08-17.65,1.08h-.1c-9.7,1.74-21.33,4.7-28.8,9.65C16.5,173.25,19.05,178.91,20,189.78c1.13,13.39,21.29,19.05,42.09,24.75s44.72,10,74.38,15.31c30.13,5.37,75.33-8.76,43.82.82s-58,3.18-108-6.8c-24.72-4.92-37.41-10.14-47.63-14.81C12.93,203.72,5.78,195.45,9,175.83c3.52-21.58,16.39-25.19,24.58-31.22,7.16-5.28,18.09-7.48,21.95-8.71h0c7.24-3,10.42-4.7,13.87-8.3,3.65-3.8,7.15-3.37,8.67-8.64,2-6.86,7.53-13.4,15.26-22.54s10.36-7.48,25.41-22.26C131.15,62,146.45,56.22,168.93,50.31c27.44-7.21,41.77-8.92,61.89-4.7,20,4.18,38.59,7.93,42,13.27-1.42-2.39-6.7-11.74-6.57-15.85.24-7.63,7.69-15.37,14.12-17.61,8.63-3,17.61-2.11,25.19,5.31s12,21.26,12,21.26l2.46-.05c-1.08-4.44,0-10.28.41-12.46.58-3.24,11.72-8.57,20.71-8.66,13.82-.15,21.19,16.66,19.3,23.11-.85,2.85-5.16,5.87-7.75,9.24,7.44,5.44,20,12.89,21.05,17.45,1.24,5.57,10.53,11.15,13.63,13.31s15.46,7.42,17.63,14.24S406.64,114.55,406.14,116ZM336.62,94.63c.19,4.68,10.37,2.65,14.39,1s5.9-7.64,3.29-8.46-13.16-4.47-16.15-2C335.57,87.32,336.42,90,336.62,94.63Z"/></g></svg>