<svg xmlns="http://www.w3.org/2000/svg" xmlns:xlink="http://www.w3.org/1999/xlink" viewBox="0 0 413.45 260.22"><defs><style>.cls-1{fill:url(#radial-gradient);}.cls-2{fill:url(#radial-gradient-2);}.cls-3{fill:url(#radial-gradient-3);}.cls-4{fill:url(#radial-gradient-4);}.cls-5{fill:url(#radial-gradient-5);}.cls-6{fill:url(#radial-gradient-6);}</style><radialGradient id="radial-gradient" cx="80.13" cy="41.84" r="16.37" gradientTransform="translate(0 -3.11) scale(1 1.07)" gradientUnits="userSpaceOnUse"><stop offset="0" stop-color="#231f20" stop-opacity="0.32"/><stop offset="1" stop-color="#231f20" stop-opacity="0.75"/></radialGradient><radialGradient id="radial-gradient-2" cx="228.33" cy="126.39" r="138.91" gradientTransform="translate(0 -9.4) scale(1 1.07)" xlink:href="#radial-gradient"/><radialGradient id="radial-gradient-3" cx="178.15" cy="222.09" r="41.79" gradientTransform="translate(0 -16.52) scale(1 1.07)" xlink:href="#radial-gradient"/><radialGradient id="radial-gradient-4" cx="195.52" cy="203.5" r="41.79" gradientTransform="translate(0 -15.14) scale(1 1.07)" xlink:href="#radial-gradient"/><radialGradient id="radial-gradient-5" cx="195.52" cy="203.5" r="41.78" gradientTransform="translate(0 -15.14) scale(1 1.07)" xlink:href="#radial-gradient"/><radialGradient id="radial-gradient-6" cx="225.87" cy="121.23" r="78.77" gradientTransform="translate(0 -9.02) scale(1 1.07)" xlink:href="#radial-gradient"/></defs><g id="Scrap"><path class="cls-1" d="M64.8,50.05a36.31,36.31,0,0,1,7.63-17.68c3.49-4.14,11.32-10.74,15.14-6.5s8.76,15,7.49,17.25a11,11,0,0,0-1.41,4.1,4.82,4.82,0,0,1,1.62,5c-.91,3-7.56,8.48-14.49,6.64S64.8,50.05,64.8,50.05Z"/><path class="cls-2" d="M386.18,238.71c-1.06,4.46-5.94,7-12.72,1.27s-28.86-15.69-33.74-18.88-15.69-3.81-25.88-6.78-14-3.61-25.88-4-26.73-.22-36.7,0-24,3-30.12.21-9.12-7.21-18.67-9.34-53.24-13.78-74-30.33-20.79-16.34-24.82-22.7S98.55,138,95.25,134.34,82.62,115,81.13,100.83s-5.51-22.49-7-31.83c-.53-3.35-1-7.42-1.34-11.27a36,36,0,0,0,7.44,3.14,13.28,13.28,0,0,0,3.38.44c6.76,0,12.62-5,13.68-8.51a6.64,6.64,0,0,0-1.35-6.28,10.5,10.5,0,0,1,1-2.36c.36-.64,1.45-2.58-1.75-9.78a40.84,40.84,0,0,0-6-9.93,6.17,6.17,0,0,0-4.7-2.07h0c-6.21,0-12.89,7.75-13.63,8.63l-.36.45a15.18,15.18,0,0,1,2.06-7c4.38-6.79,14.84-16.13,35.07-14.85s29.7,11.05,35.35,17.47,11.6,9.11,16.13,15.9C163.4,49.5,176.22,61.9,173.17,63c-2.66,1-5.27.9-7.2,1.11-6.18.67-13.85,4.6-20.53,10.51-7.14,6.32-12,13.93-13.36,20.89-1.38,7.14-.78,25.94,10,35.31,6.22,5.39,16.68,10.85,20.89,13,2.23,1.11,13.57,6.66,17.41,6.66,1.67,0,7.48,1.85,12.6,3.47,6.7,2.13,14.3,4.54,18.79,5,3,.31,10,2.62,18.08,5.28,13,4.29,29.18,9.62,41.29,11.05,8.58,1,18.55,3.93,27.34,6.51,7.73,2.26,13.83,4.05,17.31,4.05,1.63,0,5.95.08,7.24,1.14,8.31,6.83,23.83,17.53,31.73,23.53C365.39,218.56,387.24,234.26,386.18,238.71ZM112.92,27.9c-2.87,0-5.13,1.58-4.63,6.21.34,3.2,2.32,5.83,5.19,5.83s4.14-2.61,4.14-5.83S115.79,27.9,112.92,27.9Z"/><path class="cls-3" d="M201.2,202.44c-2.57-.58-7.64-1.84-14.06-3.71-4.82,1.51-10,3-14.58,4.06-12.44,2.83-24.46,3.39-29.7,7.07s-5.23,8.49-6.36,10.18-4.95,3.54-6.65,7.92-3.39,13.72-3.39,13.72S139.89,224,148.1,221s18.66-2.54,25.59,3.54,16.13,13.58,12.17,17.11a32,32,0,0,0-6.51,9s12.59-4.1,12.59-12.73-6.37-18.95-7.78-20.79.85-3.81,5.94-4,21.35,2.26,28.71,0c1-.31,1.92-.61,2.79-.91a10,10,0,0,1-1.73-.58C213.72,209,210.75,204.56,201.2,202.44Z"/><path class="cls-4" d="M203.22,223.09a31.7,31.7,0,0,0-6.5,9s12.59-4.11,12.59-12.73a21.78,21.78,0,0,0-.43-4.13c-2.69,0-5.51-.17-8.14-.34C203.73,218.23,205.32,221.21,203.22,223.09Z"/><path class="cls-5" d="M172.33,201.76c3.78-.86,8.44-2.16,13.84-3.84-7-2.09-15.23-4.79-23.48-8a13.83,13.83,0,0,0-2.46,1.32c-5.23,3.68-5.23,8.49-6.36,10.19-.81,1.21-3,2.51-4.8,4.75,3.18-.83,6.94-1.46,11-2.14S168.12,202.71,172.33,201.76Z"/><path class="cls-6" d="M134.17,96c-1.49,7.68-.22,25,9.33,33.3s32.67,19.09,36.91,19.09S204,156,212,156.83s39.67,14,59.4,16.33,47.09,14.67,46.67,9.14h0a4.24,4.24,0,0,1-.43-.65c-2.12-4.24-6.79-8.7-10-9.76s-17.39-14-22.48-19.31S270.14,137.31,263.36,132s-8.7-8.68-22.7-15.26-14.21-11.66-30.55-26.3c-11.72-10.5-19.73-17.84-26-22.76-1.78-1.4-5-3.49-17.93-1.42C154.61,68.1,136.92,81.73,134.17,96Z"/></g></svg>